<svg width="50" height="50" viewBox="0 0 50 50" fill="none" xmlns="http://www.w3.org/2000/svg">
<path d="M7.96224 37.6387C7.31318 39.071 6.4627 39.7425 5.23174 39.5634C4.00077 39.3844 2.76981 39.0934 1.58361 38.7129C0.419791 38.3325 -0.206878 37.0567 0.0616958 35.8705C1.2479 30.6781 2.43409 25.4857 3.62029 20.2933C3.97839 18.749 5.27651 17.988 6.8208 18.3237C7.58176 18.5028 8.32034 18.7042 9.0813 18.8385C10.4465 19.0847 11.3194 19.8233 11.5656 21.3004C11.7446 21.3004 11.9237 21.3004 12.1027 21.3004C15.0571 21.3004 18.0114 21.3004 20.9881 21.278C21.2566 21.278 21.6147 21.1437 21.8162 20.9647C23.7186 19.2414 25.8224 18.8609 28.1276 20.0247C29.8734 20.8976 31.5743 21.9271 33.2753 22.8895C34.0139 23.3147 34.7972 23.5609 35.6477 23.3371C36.252 23.1581 36.8563 22.8895 37.4382 22.6433C37.5277 22.5985 37.5949 22.3747 37.5725 22.2404C37.2592 20.4052 38.0201 19.2637 39.833 18.8833C40.6163 18.7266 41.3773 18.5252 42.1606 18.3685C43.7945 18.0104 45.0702 18.7713 45.4283 20.4052C46.525 25.2171 47.6216 30.0291 48.7407 34.841C48.8078 35.1767 48.8973 35.5124 48.9645 35.8482C49.2554 37.2582 48.4497 38.5563 47.0397 38.9144C46.234 39.1158 45.4283 39.2501 44.6226 39.4739C43.3245 39.832 42.2502 39.5634 41.3997 38.422C40.6611 38.7577 39.9225 39.071 39.1839 39.4068C39.072 39.4515 39.0049 39.7201 39.0273 39.8768C39.3182 41.6225 38.3111 43.1668 36.6325 43.5249C36.4311 43.5697 36.2072 43.592 35.9387 43.6144C36.0506 45.0468 35.603 46.2554 34.2601 46.9492C32.9172 47.643 31.6639 47.3521 30.5224 46.3449C30.2315 47.3521 29.672 48.113 28.7096 48.5383C27.5234 49.0754 26.2029 48.8292 25.2405 47.8892C24.7929 47.464 24.3676 46.994 23.8976 46.4792C23.8305 46.6583 23.7857 46.7478 23.7633 46.8373C22.9576 49.1202 20.2942 49.7469 18.5485 48.0683C16.6685 46.2554 14.8333 44.3978 12.9756 42.5625C11.4089 41.0182 9.84225 39.4739 8.29795 37.9296C8.18605 37.8401 8.07414 37.7506 7.96224 37.6387ZM20.1152 22.7328C19.9361 22.7104 19.869 22.688 19.8019 22.688C17.1161 22.688 14.408 22.688 11.7223 22.6657C11.3418 22.6657 11.297 22.8671 11.2299 23.1357C10.2899 27.2538 9.34987 31.3719 8.40986 35.4901C8.32034 35.8482 8.38748 36.072 8.63367 36.3182C10.6256 38.2653 12.6175 40.2349 14.6094 42.2044C16.2209 43.8158 17.8547 45.4049 19.4662 47.0164C19.9362 47.4864 20.4733 47.7102 21.1223 47.5759C21.7714 47.4416 22.219 47.0387 22.4205 46.4121C22.6443 45.763 22.4876 45.1587 22.0176 44.6663C21.1223 43.7487 20.2271 42.8758 19.3319 41.9582C18.9738 41.6001 18.9514 41.1973 19.2423 40.9063C19.5557 40.593 19.9361 40.6153 20.339 40.9734C20.4285 41.063 20.4957 41.1301 20.5852 41.2196C22.4428 43.0773 24.2781 44.9125 26.1133 46.7702C26.5833 47.2402 27.0981 47.4864 27.7696 47.3745C28.441 47.2402 28.911 46.8597 29.1124 46.1883C29.3362 45.5168 29.1572 44.9125 28.6648 44.4201C26.9638 42.7192 25.2852 41.0182 23.5843 39.3396C23.4724 39.2277 23.3605 39.1382 23.2709 39.0263C22.98 38.6906 22.9576 38.2877 23.2709 38.0191C23.6067 37.7282 23.92 37.7729 24.2557 38.0415C24.3452 38.131 24.4348 38.2206 24.5467 38.3101C26.8295 40.593 29.1348 42.8982 31.4177 45.1811C31.552 45.3154 31.7086 45.4721 31.8653 45.584C32.8501 46.3002 34.2601 45.7854 34.5511 44.5992C34.7301 43.883 34.4839 43.3235 33.9691 42.8087C31.7086 40.5706 29.4705 38.3325 27.2324 36.072C27.0981 35.9377 26.9638 35.8258 26.8743 35.6691C26.6729 35.3782 26.7176 35.0648 26.9638 34.8186C27.21 34.5724 27.5234 34.5277 27.8143 34.7291C27.971 34.8186 28.0829 34.9753 28.2172 35.0872C30.321 37.1686 32.4025 39.2725 34.4839 41.3539C34.6182 41.4882 34.7301 41.6225 34.8868 41.7344C35.4015 42.182 36.0058 42.2716 36.6549 42.0477C37.2815 41.8239 37.6396 41.3315 37.7515 40.6825C37.8634 40.0334 37.5725 39.4963 37.1025 39.0487C34.2601 36.2286 31.4401 33.3862 28.62 30.5662C27.0981 29.0443 25.5986 28.91 23.7633 30.0962C22.7338 30.7453 21.6819 31.3943 20.5628 31.8643C18.1457 32.8715 15.9075 32.2224 14.2737 30.2081C13.938 29.8053 13.9828 29.4472 14.3409 29.0891C15.3704 28.0595 16.3999 27.0524 17.3847 25.9781C18.2576 24.9485 19.1304 23.8742 20.1152 22.7328ZM40.9521 37.0567C39.9449 32.67 38.9601 28.3281 37.953 23.9862C37.8634 23.9862 37.8411 23.9862 37.7963 24.0085C37.7068 24.0533 37.6173 24.0757 37.5277 24.1204C35.6253 25.1276 33.8125 24.9262 31.9996 23.7847C30.5896 22.8895 29.1124 22.1061 27.6353 21.3228C26.74 20.8304 25.7553 20.6066 24.7257 20.8528C23.7857 21.0766 23.0471 21.6361 22.4205 22.3076C20.1823 24.7695 17.9666 27.2762 15.7061 29.7829C15.7956 29.8724 15.9299 30.0067 16.0866 30.1186C17.4295 31.1929 18.8842 31.1257 20.3166 30.4095C21.3462 29.8948 22.3309 29.2681 23.3157 28.6638C25.1733 27.5224 27.4338 27.7014 29.0677 29.1338C29.3586 29.38 29.6048 29.671 29.8734 29.9395C32.5367 32.6029 35.2001 35.2663 37.8858 37.9296C38.0201 38.0639 38.2663 38.1982 38.4006 38.131C39.2511 37.8401 40.1016 37.4596 40.9521 37.0567ZM42.6978 19.6442C41.9368 19.8233 41.0416 20.0247 40.1239 20.2261C38.9825 20.4947 38.6916 20.9423 38.9601 22.0614C39.2958 23.5609 39.6316 25.0604 39.9897 26.5376C40.7954 30.0514 41.6011 33.5429 42.3845 37.0567C42.5859 37.9296 43.123 38.3325 43.9064 38.1758C44.8016 37.9744 45.7192 37.7729 46.6145 37.5491C47.4202 37.3477 47.7559 36.8106 47.5769 36.0048C46.9278 33.14 46.2788 30.2753 45.6073 27.4105C45.0925 25.1724 44.5778 22.9342 44.063 20.6961C43.884 20.0023 43.5035 19.6442 42.6978 19.6442ZM10.1556 21.6138C10.1556 20.8752 9.79749 20.4499 9.14844 20.2933C8.27557 20.0918 7.40271 19.8904 6.55223 19.689C5.72413 19.5099 5.1646 19.8456 4.98555 20.6961C3.82173 25.7543 2.65791 30.8348 1.51647 35.8929C1.29266 36.8777 1.62837 37.3925 2.61314 37.6163C3.39648 37.7953 4.15744 37.9744 4.94078 38.131C5.94793 38.3549 6.44032 38.0415 6.66413 37.0567C7.6489 32.7148 8.65605 28.3729 9.64082 24.0309C9.79749 23.1804 9.99892 22.3076 10.1556 21.6138Z" fill="#136CF2"/>
<path d="M23.9871 2.47784C24.099 2.32117 24.1662 2.23165 24.2333 2.14212C25.6657 0.1502 28.0381 -0.521234 30.3434 0.418774C32.4696 1.29164 33.6782 3.46261 33.3648 5.83501C33.1186 7.67027 32.201 9.14742 31.0148 10.5127C30.4553 11.1393 29.8733 11.766 29.2691 12.3479C27.7248 13.8027 26.1357 15.2575 24.569 16.6899C24.1438 17.0927 23.8304 17.1151 23.45 16.757C21.458 14.877 19.4214 13.0417 17.4742 11.0946C16.1761 9.81886 15.1466 8.3417 14.7213 6.52883C14.2513 4.49214 14.6318 2.65689 16.288 1.26926C17.8771 -0.0736116 19.7123 -0.297423 21.6371 0.418774C22.4876 0.73211 23.1142 1.3364 23.6514 2.0526C23.7633 2.1645 23.8528 2.29879 23.9871 2.47784ZM23.9871 15.3246C24.4571 14.8994 24.9047 14.4965 25.33 14.0937C26.9414 12.527 28.5976 11.0051 30.1419 9.39361C31.1491 8.3417 31.7981 7.06597 31.9996 5.58882C32.2234 3.97738 31.3953 2.43308 29.8734 1.76164C28.3291 1.06783 26.5833 1.44831 25.5762 2.72403C25.2181 3.14927 24.9719 3.66404 24.6809 4.13404C24.2781 4.80548 23.7185 4.80548 23.3157 4.13404C23.0247 3.66404 22.7785 3.19404 22.4428 2.76879C21.4804 1.53783 19.9137 1.13497 18.3918 1.67212C16.9147 2.18688 15.9747 3.52975 15.9747 5.07405C15.9747 6.50645 16.5566 7.73741 17.4071 8.85647C19.2647 11.296 21.7714 13.1313 23.9871 15.3246Z" fill="#136CF2"/>
</svg>
