<svg width="44" height="51" viewBox="0 0 44 51" fill="none" xmlns="http://www.w3.org/2000/svg">
<path d="M8.67108 42.6354C7.73339 42.88 6.81608 43.1247 5.89878 43.3693C4.57379 43.7158 3.2488 44.0623 1.94419 44.4293C1.49573 44.5516 1.10842 44.5516 0.823038 44.1643C0.537655 43.777 0.63958 43.3897 0.86381 43.0023C2.29073 40.5358 3.71764 38.0693 5.14456 35.6028C5.24648 35.4397 5.32802 35.2562 5.45033 35.0728C5.38917 35.0116 5.3484 34.9505 5.28725 34.9301C4.12533 34.2778 3.59533 33.2178 3.59533 31.9336C3.61572 30.8736 3.71764 29.8136 3.86033 28.7536C4.02341 27.5713 3.75841 26.552 2.90226 25.6755C2.22957 24.9824 1.55688 24.2486 0.965732 23.4944C-0.318492 21.8025 -0.318493 20.3959 0.945347 18.704C1.5365 17.9294 2.1888 17.2159 2.88188 16.5229C3.73803 15.6259 4.0234 14.6067 3.83994 13.404C3.69725 12.4256 3.59533 11.4267 3.57495 10.4483C3.53418 8.5729 4.39033 7.41099 6.18416 6.8606C7.22377 6.55484 8.28377 6.35099 9.34376 6.12676C10.4038 5.92292 11.158 5.33177 11.688 4.39408C12.218 3.45639 12.7276 2.49832 13.3595 1.62178C14.4195 0.113328 15.7649 -0.294362 17.5383 0.25602C17.9053 0.378327 18.2722 0.521019 18.6391 0.684095C19.3118 0.969478 19.9845 1.29563 20.6572 1.58101C21.5541 1.96832 22.4306 1.9887 23.3275 1.58101C24.0614 1.25486 24.7748 0.92871 25.5087 0.622942C25.9979 0.419097 26.5279 0.235636 27.0375 0.113329C28.3218 -0.212823 29.4021 0.174482 30.2583 1.15294C30.7271 1.70332 31.1144 2.35563 31.5221 2.96716C31.8483 3.47677 32.1133 4.00677 32.3987 4.51638C32.8675 5.37253 33.581 5.88215 34.5594 6.08599C35.6398 6.31022 36.7202 6.51407 37.7598 6.81984C39.6352 7.3906 40.4505 8.51175 40.4098 10.4687C40.3894 11.5694 40.2467 12.6498 40.1448 13.7506C40.0428 14.729 40.2875 15.5648 40.9601 16.2782C41.6125 16.9713 42.2648 17.6644 42.8763 18.4186C44.3847 20.294 44.3644 21.8636 42.8763 23.739C42.4686 24.2486 42.0609 24.7582 41.5717 25.1863C40.2467 26.3482 39.9205 27.7751 40.2467 29.4466C40.3894 30.1601 40.4302 30.8736 40.4505 31.587C40.4913 33.2789 40.0428 34.0739 38.5955 35.0524C38.6771 35.2155 38.779 35.3785 38.8809 35.5416C40.3078 38.0081 41.7551 40.4543 43.1821 42.9208C43.3044 43.145 43.4471 43.41 43.4471 43.675C43.4471 44.2662 42.8763 44.5923 42.224 44.4293C40.104 43.8585 37.984 43.2877 35.864 42.717C35.7213 42.6762 35.5786 42.6558 35.3952 42.615C35.0283 44.0012 34.6613 45.3466 34.2944 46.6919C34.0702 47.5481 33.846 48.4042 33.6217 49.24C33.4994 49.7089 33.3363 50.1165 32.786 50.1777C32.2763 50.2389 32.0113 49.8923 31.7871 49.4846C30.4417 47.1404 29.0964 44.7962 27.7306 42.4724C27.6083 42.2685 27.3637 42.1258 27.1395 42.0239C26.3852 41.7181 25.631 41.4531 24.8768 41.1677C24.4691 41.0047 24.0818 40.8212 23.6945 40.6377C22.6141 40.1077 21.5541 40.1281 20.4737 40.6377C19.5972 41.0454 18.7206 41.555 17.783 41.7589C16.8249 41.9831 16.356 42.5335 15.928 43.3081C14.8068 45.367 13.6041 47.3646 12.4422 49.4031C12.218 49.8108 11.9734 50.2185 11.423 50.1573C10.8726 50.0962 10.6891 49.6681 10.5668 49.1789C10.0368 47.1812 9.50684 45.1835 8.95646 43.1858C8.81377 43.0635 8.75261 42.88 8.67108 42.6354ZM5.28725 31.1997C5.22609 32.9324 5.57263 33.4012 7.01993 33.8089C7.52954 33.9516 8.03916 34.0739 8.54877 34.1351C10.9541 34.4001 12.6664 35.5824 13.6857 37.8043C13.9914 38.477 14.4195 39.0885 14.8476 39.6797C15.3368 40.3931 16.0299 40.597 16.8453 40.2912C17.6607 39.9854 18.4964 39.6593 19.271 39.272C21.0852 38.3547 22.8587 38.3343 24.6525 39.272C25.3864 39.6389 26.1406 39.9854 26.9356 40.2708C27.9752 40.6377 28.5867 40.4543 29.2187 39.537C29.7079 38.8439 30.136 38.1101 30.5029 37.3558C31.4202 35.5009 32.9083 34.5224 34.9467 34.237C35.8232 34.1147 36.6794 33.8701 37.5152 33.6255C38.2694 33.4012 38.6771 32.8305 38.6363 32.0355C38.6159 31.1997 38.5752 30.3436 38.4529 29.5078C38.1267 27.4897 38.5344 25.7163 40.0836 24.269C40.4302 23.9428 40.7563 23.5759 41.0825 23.209C41.3678 22.8624 41.6532 22.5159 41.9182 22.149C42.3463 21.4967 42.3667 20.824 41.9182 20.1717C41.6532 19.7844 41.3678 19.4175 41.0621 19.0709C40.5932 18.5205 40.104 18.0109 39.6148 17.4606C38.6363 16.3802 38.2694 15.1163 38.4121 13.669C38.514 12.711 38.6363 11.7325 38.6771 10.754C38.7382 9.34751 38.3917 8.85829 37.0463 8.49137C36.2513 8.26714 35.4359 8.10406 34.6206 7.96137C32.8471 7.6556 31.5221 6.75868 30.6864 5.1483C30.401 4.59792 30.1156 4.06792 29.7894 3.55831C29.5448 3.15062 29.2594 2.74293 28.9537 2.37601C28.546 1.90717 28.016 1.68294 27.4044 1.90717C26.5279 2.23332 25.631 2.53909 24.8156 2.94678C22.9402 3.90485 21.1056 3.92523 19.2303 2.94678C18.5372 2.57985 17.8237 2.27409 17.1103 2.02947C15.9891 1.62178 15.4183 1.80524 14.7457 2.7837C14.2564 3.49716 13.8284 4.25139 13.4207 5.00561C12.5441 6.71791 11.1988 7.67598 9.303 7.98175C8.3857 8.12444 7.46839 8.36906 6.57147 8.61367C5.75609 8.8379 5.30763 9.42905 5.32802 10.3056C5.36879 11.1414 5.38917 11.9567 5.53186 12.7721C5.85801 14.8106 5.42994 16.584 3.88072 18.0517C3.35072 18.5409 2.88187 19.0913 2.43341 19.6621C1.51611 20.8036 1.51611 21.5171 2.4538 22.6586C3.02457 23.3721 3.67687 24.0244 4.28841 24.7174C5.30763 25.8386 5.75609 27.1228 5.59301 28.6313C5.45032 29.5486 5.3484 30.5066 5.28725 31.1997ZM14.7049 41.8404C13.4818 41.1066 12.8499 39.9447 12.218 38.7624C12.0141 38.3955 11.8103 38.0489 11.6064 37.682C11.1172 36.7851 10.363 36.2551 9.36415 36.0716C8.773 35.9493 8.16147 35.8474 7.57031 35.6843C7.22378 35.6028 7.0607 35.6843 6.89762 35.9901C5.79686 37.947 4.65532 39.8835 3.53418 41.8404C3.47302 41.9424 3.43225 42.0647 3.35072 42.2685C5.22609 41.7793 6.99955 41.2901 8.79339 40.8212C9.64954 40.597 9.97569 40.7804 10.1999 41.657C10.628 43.2673 11.0561 44.8777 11.5045 46.5085C11.5453 46.6919 11.6064 46.855 11.7084 47.12C12.7072 45.3058 13.6857 43.5935 14.7049 41.8404ZM32.2763 47.12C32.3375 46.8958 32.3579 46.8143 32.3783 46.7327C32.8471 45.0204 33.2956 43.2877 33.7644 41.5754C33.9683 40.8008 34.3352 40.597 35.1302 40.8008C35.7825 40.9639 36.4144 41.1474 37.0667 41.3104C38.2286 41.6162 39.3905 41.9424 40.6544 42.2685C40.4913 41.9831 40.4098 41.82 40.3078 41.657C39.4517 40.1689 38.5752 38.6604 37.719 37.1724C37.4132 36.6628 37.2094 35.9289 36.7609 35.7251C36.3125 35.5212 35.6194 35.8678 35.0486 35.9697C33.7236 36.1735 32.7248 36.8055 32.154 38.0489C32.0521 38.2731 31.9094 38.4974 31.7871 38.7012C31.1144 39.9039 30.5029 41.127 29.2594 41.8608C30.2379 43.6139 31.2163 45.3058 32.2763 47.12Z" fill="#136CF2"/>
<path d="M21.9823 34.6039C14.5623 34.6039 8.48772 28.5701 8.46734 21.1298C8.44695 13.6894 14.5419 7.61484 21.9823 7.61484C29.4022 7.61484 35.4564 13.6894 35.4564 21.1094C35.4768 28.5497 29.4022 34.5836 21.9823 34.6039ZM21.9619 32.8509C28.4645 32.8509 33.7441 27.5917 33.7441 21.1094C33.7441 14.6475 28.4645 9.36791 22.023 9.34752C15.5408 9.32714 10.2408 14.5863 10.2204 21.0686C10.1796 27.5509 15.4592 32.8509 21.9619 32.8509Z" fill="#136CF2"/>
<path d="M20.0864 24.5748C20.2699 24.4118 20.4125 24.2691 20.5552 24.1264C23.2256 21.456 25.9164 18.7652 28.5867 16.0949C28.7294 15.9522 28.8517 15.8095 29.0352 15.7076C29.4225 15.4833 29.8098 15.5241 30.1156 15.8503C30.401 16.156 30.4213 16.5433 30.1971 16.8899C30.0952 17.0326 29.9729 17.1752 29.8506 17.2976C26.8948 20.2533 23.9391 23.2091 20.9833 26.1852C20.3106 26.8579 19.9437 26.8579 19.2506 26.1648C17.5383 24.4525 15.826 22.7402 14.1341 21.0483C14.0526 20.9668 13.971 20.9056 13.9099 20.8241C13.5633 20.4368 13.543 19.9475 13.8691 19.601C14.2156 19.2341 14.7253 19.2137 15.1126 19.601C15.9279 20.396 16.7229 21.191 17.5383 22.0064C18.3741 22.8421 19.2099 23.6983 20.0864 24.5748Z" fill="#136CF2"/>
</svg>
