<svg width="66" height="55" viewBox="0 0 66 55" fill="none" xmlns="http://www.w3.org/2000/svg">
<path d="M19.3984 13.8672C16.7728 17.4863 15.46 21.5667 15.46 26.1084C19.363 26.1084 22.5563 27.4212 25.04 30.0469C27.5238 32.6725 28.7656 35.9368 28.7656 39.8398C28.7656 43.8848 27.4173 47.3975 24.7207 50.3779C22.0241 53.3584 18.7243 54.8486 14.8213 54.8486C10.2796 54.8486 6.76693 53.0745 4.2832 49.5264C1.79948 45.9782 0.557617 41.6494 0.557617 36.54C0.557617 28.3792 3.1123 20.7507 8.22168 13.6543C13.3311 6.55794 20.25 2.05176 28.9785 0.135742L30.4688 5.35156C25.7852 7.40951 22.0951 10.248 19.3984 13.8672ZM54.3125 13.8672C51.6868 17.4863 50.374 21.5667 50.374 26.1084C54.277 26.1084 57.4704 27.4212 59.9541 30.0469C62.4378 32.6725 63.6797 35.9368 63.6797 39.8398C63.6797 43.8848 62.3314 47.3975 59.6348 50.3779C56.9382 53.3584 53.6383 54.8486 49.7354 54.8486C45.1937 54.8486 41.681 53.0745 39.1973 49.5264C36.7135 45.9782 35.4717 41.6494 35.4717 36.54C35.4717 28.3792 38.0264 20.7507 43.1357 13.6543C48.2451 6.55794 55.1641 2.05176 63.8926 0.135742L65.3828 5.35156C60.6992 7.40951 57.0091 10.248 54.3125 13.8672Z" fill="#E7F0FF"/>
</svg>
