<svg width="107" height="17" viewBox="0 0 107 17" fill="none" xmlns="http://www.w3.org/2000/svg">
<path d="M16.4505 5.98618L11.3543 5.21059L9.07611 0.374144C9.01388 0.241725 8.91152 0.134529 8.78506 0.0693701C8.46793 -0.0945772 8.08254 0.0420455 7.92397 0.374144L5.64581 5.21059L0.549539 5.98618C0.409035 6.0072 0.280575 6.07656 0.182222 6.18166C0.0633192 6.30964 -0.00220171 6.48181 5.64944e-05 6.66035C0.0023147 6.83888 0.0721672 7.00918 0.194265 7.13381L3.88148 10.8983L3.01036 16.214C2.98993 16.3376 3.003 16.4648 3.04808 16.5811C3.09316 16.6973 3.16845 16.7981 3.26541 16.8718C3.36237 16.9456 3.47713 16.9894 3.59666 16.9983C3.7162 17.0072 3.83573 16.9809 3.9417 16.9223L8.50004 14.4127L13.0584 16.9223C13.1828 16.9917 13.3273 17.0148 13.4658 16.9896C13.8151 16.9265 14.0499 16.5797 13.9897 16.214L13.1186 10.8983L16.8058 7.13381C16.9062 7.03082 16.9724 6.8963 16.9925 6.74917C17.0467 6.38134 16.8018 6.04083 16.4505 5.98618Z" fill="#FFB800"/>
<path d="M38.4505 5.98618L33.3543 5.21059L31.0761 0.374144C31.0139 0.241725 30.9115 0.134529 30.7851 0.0693701C30.4679 -0.0945772 30.0825 0.0420455 29.924 0.374144L27.6458 5.21059L22.5495 5.98618C22.409 6.0072 22.2806 6.07656 22.1822 6.18166C22.0633 6.30964 21.9978 6.48181 22.0001 6.66035C22.0023 6.83888 22.0722 7.00918 22.1943 7.13381L25.8815 10.8983L25.0104 16.214C24.9899 16.3376 25.003 16.4648 25.0481 16.5811C25.0932 16.6973 25.1684 16.7981 25.2654 16.8718C25.3624 16.9456 25.4771 16.9894 25.5967 16.9983C25.7162 17.0072 25.8357 16.9809 25.9417 16.9223L30.5 14.4127L35.0584 16.9223C35.1828 16.9917 35.3273 17.0148 35.4658 16.9896C35.8151 16.9265 36.0499 16.5797 35.9897 16.214L35.1186 10.8983L38.8058 7.13381C38.9062 7.03082 38.9724 6.8963 38.9925 6.74917C39.0467 6.38134 38.8018 6.04083 38.4505 5.98618Z" fill="#FFB800"/>
<path d="M61.4182 5.98618L56.0222 5.21059L53.61 0.374144C53.5441 0.241725 53.4357 0.134529 53.3018 0.0693701C52.966 -0.0945772 52.558 0.0420455 52.3901 0.374144L49.9779 5.21059L44.5819 5.98618C44.4331 6.0072 44.2971 6.07656 44.1929 6.18166C44.067 6.30964 43.9977 6.48181 44.0001 6.66035C44.0025 6.83888 44.0764 7.00918 44.2057 7.13381L48.1098 10.8983L47.1874 16.214C47.1658 16.3376 47.1796 16.4648 47.2274 16.5811C47.2751 16.6973 47.3548 16.7981 47.4575 16.8718C47.5602 16.9456 47.6817 16.9894 47.8082 16.9983C47.9348 17.0072 48.0614 16.9809 48.1736 16.9223L53 14.4127L57.8265 16.9223C57.9583 16.9917 58.1113 17.0148 58.258 16.9896C58.6277 16.9265 58.8764 16.5797 58.8126 16.214L57.8903 10.8983L61.7944 7.13381C61.9007 7.03082 61.9708 6.8963 61.992 6.74917C62.0494 6.38134 61.7901 6.04083 61.4182 5.98618Z" fill="#FFB800"/>
<path d="M84.4182 5.98618L79.0222 5.21059L76.61 0.374144C76.5441 0.241725 76.4357 0.134529 76.3018 0.0693701C75.966 -0.0945772 75.558 0.0420455 75.3901 0.374144L72.9779 5.21059L67.5819 5.98618C67.4331 6.0072 67.2971 6.07656 67.1929 6.18166C67.067 6.30964 66.9977 6.48181 67.0001 6.66035C67.0025 6.83888 67.0764 7.00918 67.2057 7.13381L71.1098 10.8983L70.1874 16.214C70.1658 16.3376 70.1796 16.4648 70.2274 16.5811C70.2751 16.6973 70.3548 16.7981 70.4575 16.8718C70.5602 16.9456 70.6817 16.9894 70.8082 16.9983C70.9348 17.0072 71.0614 16.9809 71.1736 16.9223L76 14.4127L80.8265 16.9223C80.9583 16.9917 81.1113 17.0148 81.258 16.9896C81.6277 16.9265 81.8764 16.5797 81.8126 16.214L80.8903 10.8983L84.7944 7.13381C84.9007 7.03082 84.9708 6.8963 84.992 6.74917C85.0494 6.38134 84.7901 6.04083 84.4182 5.98618Z" fill="#FFB800"/>
<path d="M106.451 5.98618L101.354 5.21059L99.0761 0.374144C99.0139 0.241725 98.9115 0.134529 98.7851 0.0693701C98.4679 -0.0945772 98.0825 0.0420455 97.924 0.374144L95.6458 5.21059L90.5495 5.98618C90.409 6.0072 90.2806 6.07656 90.1822 6.18166C90.0633 6.30964 89.9978 6.48181 90.0001 6.66035C90.0023 6.83888 90.0722 7.00918 90.1943 7.13381L93.8815 10.8983L93.0104 16.214C92.9899 16.3376 93.003 16.4648 93.0481 16.5811C93.0932 16.6973 93.1684 16.7981 93.2654 16.8718C93.3624 16.9456 93.4771 16.9894 93.5967 16.9983C93.7162 17.0072 93.8357 16.9809 93.9417 16.9223L98.5 14.4127L103.058 16.9223C103.183 16.9917 103.327 17.0148 103.466 16.9896C103.815 16.9265 104.05 16.5797 103.99 16.214L103.119 10.8983L106.806 7.13381C106.906 7.03082 106.972 6.8963 106.992 6.74917C107.047 6.38134 106.802 6.04083 106.451 5.98618Z" fill="#FFB800"/>
</svg>
