<svg width="60" height="60" viewBox="0 0 60 60" fill="none" xmlns="http://www.w3.org/2000/svg">
<path d="M59.918 59.5077C59.5902 59.8633 59.1803 60 58.6885 60C53.0328 59.9727 47.3771 60 41.7213 60C40.7377 60 40.4918 59.7812 40.4918 58.7967C40.4918 57.4567 40.4918 56.144 40.4918 54.804C40.4918 54.0656 40.765 53.7648 41.5027 53.7648C42.377 53.7648 43.2514 53.7648 44.1803 53.7648C44.1803 49.3892 44.1803 45.0684 44.1803 40.6928C43.5792 40.6928 42.9508 40.6928 42.2678 40.6928C42.2678 41.103 42.2678 41.5406 42.2678 41.9508C42.2678 44.6035 42.4863 44.412 39.8087 44.3847C38.9071 44.3847 38.0055 44.3847 37.1038 44.3847C36.3661 44.3847 36.0656 44.1112 36.0656 43.3728C36.0656 42.4977 36.0656 41.6226 36.0656 40.6928C31.9945 40.6928 27.9508 40.6928 23.8525 40.6928C23.8525 41.5406 23.8525 42.4157 23.8525 43.2634C23.8525 44.1386 23.5793 44.412 22.7049 44.412C21.3661 44.412 20 44.412 18.6612 44.412C17.9508 44.412 17.6776 44.1386 17.6503 43.4275C17.6503 42.5251 17.6503 41.65 17.6503 40.7475C16.6667 40.6381 15.7104 40.5834 14.7814 40.4193C9.07106 39.4622 4.45358 34.5123 3.85248 28.742C3.79784 28.113 3.74319 27.4567 3.74319 26.8277C3.74319 20.2097 3.74319 13.5916 3.74319 6.97356C3.74319 6.75479 3.74319 6.50866 3.74319 6.23519C2.86887 6.23519 2.04921 6.23519 1.25686 6.23519C0.218606 6.23519 0 6.01641 0 4.94986C0 3.71923 0.0273224 2.48861 0 1.25798C0 0.765725 0.109303 0.355515 0.491816 0.0273474C6.66668 0.0273474 12.8142 0.0273474 18.9891 0.0273474C19.3443 0.355515 19.4809 0.765725 19.4809 1.25798C19.4536 2.48861 19.4809 3.71923 19.4809 4.94986C19.4809 6.01641 19.2623 6.23519 18.2241 6.23519C17.4044 6.23519 16.5847 6.23519 15.7924 6.23519C15.765 6.34458 15.7377 6.39927 15.7377 6.45397C15.7377 13.3728 15.7377 20.2644 15.7377 27.1832C15.7377 28.2224 16.5847 28.8514 17.7049 28.6326C17.7049 27.7575 17.7049 26.8824 17.7049 26.0073C17.7049 25.2142 17.9782 24.9681 18.7705 24.9408C20.1093 24.9408 21.4208 24.9408 22.7596 24.9408C23.6612 24.9408 23.9344 25.1869 23.9344 26.144C23.9344 26.9644 23.9344 27.8122 23.9344 28.66C24.9727 28.66 25.929 28.66 26.9126 28.66C26.9126 26.8004 26.9126 24.9681 26.9126 23.0811C26.2568 23.0811 25.6558 23.0811 25.0273 23.0811C24.235 23.0811 23.9618 22.8077 23.9618 22.0419C23.9618 20.6746 23.9618 19.3072 23.9618 17.9398C23.9618 17.1468 24.235 16.8733 25 16.8733C25.6284 16.8733 26.2568 16.8733 26.9399 16.8733C26.9399 16.0802 26.9399 15.4239 26.9399 14.7402C26.9399 13.9198 27.1858 13.6737 27.9781 13.6737C29.3443 13.6737 30.7104 13.6737 32.0765 13.6737C32.8688 13.6737 33.1148 13.9198 33.1421 14.7402C33.1421 15.4512 33.1421 16.1349 33.1421 16.9006C33.8525 16.9006 34.4809 16.9006 35.1093 16.9006C35.8197 16.9006 36.1202 17.2015 36.1202 17.8851C36.1202 19.2799 36.1202 20.7019 36.1202 22.0966C36.1202 22.8077 35.8197 23.0811 35.1093 23.0811C34.4809 23.0811 33.8251 23.0811 33.1694 23.0811C33.1694 24.9681 33.1694 26.8277 33.1694 28.66C34.1803 28.66 35.1366 28.66 36.1475 28.66C36.1475 27.7302 36.1475 26.8551 36.1475 25.9799C36.1475 25.2416 36.4481 24.9408 37.1858 24.9408C38.5246 24.9408 39.8361 24.9408 41.1749 24.9408C42.1311 24.9408 42.3497 25.1869 42.3497 26.1167C42.3497 26.9644 42.3497 27.8122 42.3497 28.66C43.0601 28.66 43.6612 28.66 44.2896 28.66C44.2896 21.1668 44.2896 13.7283 44.2896 6.20784C43.7159 6.20784 43.1421 6.20784 42.5956 6.20784C40.5738 6.20784 40.5738 6.20784 40.5738 4.23883C40.5738 3.25433 40.6011 2.29717 40.5738 1.31267C40.5464 0.793072 40.6557 0.355515 41.0383 0C47.3497 0 53.6885 0 60 0C60 1.91431 60 3.82862 60 5.74293C59.6448 6.1258 59.2076 6.23519 58.6885 6.20784C57.8688 6.18049 57.0765 6.20784 56.2841 6.20784C56.2841 22.0966 56.2841 37.9034 56.2841 53.7648C57.1038 53.7648 57.8962 53.7922 58.6885 53.7648C59.2076 53.7375 59.6448 53.8469 59.9727 54.2297C59.918 55.9799 59.918 57.7575 59.918 59.5077ZM42.2951 38.9973C43.1421 38.9973 43.9071 38.9973 44.6995 38.9973C45.6284 38.9973 45.8743 39.2434 45.8743 40.1732C45.8743 44.4667 45.8743 48.7603 45.8743 53.0538C45.8743 53.2726 45.8743 53.4913 45.8743 53.7101C48.8251 53.7101 51.6667 53.7101 54.4809 53.7101C54.4809 37.8487 54.4809 22.0419 54.4809 6.23519C51.5847 6.23519 48.7432 6.23519 45.8743 6.23519C45.8743 6.50866 45.8743 6.72744 45.8743 6.94622C45.8743 14.33 45.8743 21.7411 45.8743 29.1249C45.8743 30.0547 45.6284 30.3008 44.6995 30.3008C43.9071 30.3008 43.1147 30.3008 42.2951 30.3008C42.2951 33.2543 42.2951 36.0711 42.2951 38.9973ZM5.35522 6.23519C5.35522 6.42662 5.35522 6.56335 5.35522 6.70009C5.35522 13.5643 5.32789 20.4011 5.35522 27.2653C5.38254 32.8168 9.235 37.5752 14.6448 38.7511C15.6011 38.9699 16.5847 38.9973 17.5683 39.1067C17.5683 36.0984 17.5683 33.2543 17.5683 30.4376C17.4863 30.4102 17.459 30.3829 17.4317 30.3829C15.082 30.2188 14.0164 29.0702 14.0164 26.7183C14.0164 20.1276 14.0164 13.5643 14.0164 6.97356C14.0164 6.75479 14.0164 6.50866 14.0164 6.26253C11.1202 6.23519 8.27871 6.23519 5.35522 6.23519ZM23.8798 30.3555C23.8798 33.2543 23.8798 36.1258 23.8798 38.9699C27.9508 38.9699 31.9945 38.9699 36.0109 38.9699C36.0109 36.0711 36.0109 33.227 36.0109 30.3555C31.9399 30.3555 27.9235 30.3555 23.8798 30.3555ZM1.63934 4.51231C7.02186 4.51231 12.3771 4.51231 17.7049 4.51231C17.7049 3.5278 17.7049 2.59799 17.7049 1.64084C12.3224 1.64084 6.99453 1.64084 1.63934 1.64084C1.63934 2.62534 1.63934 3.55515 1.63934 4.51231ZM58.2514 1.66819C52.8415 1.66819 47.5137 1.66819 42.1585 1.66819C42.1585 2.65269 42.1585 3.55515 42.1585 4.51231C47.541 4.51231 52.8962 4.51231 58.2514 4.51231C58.2514 3.55515 58.2514 2.62534 58.2514 1.66819ZM19.317 26.6089C19.317 32.0237 19.317 37.3838 19.317 42.7165C20.3006 42.7165 21.2295 42.7165 22.1585 42.7165C22.1585 37.3291 22.1585 31.969 22.1585 26.6089C21.1749 26.6089 20.2732 26.6089 19.317 26.6089ZM37.7323 26.6089C37.7323 32.0237 37.7323 37.3838 37.7323 42.7165C38.7159 42.7165 39.6448 42.7165 40.5738 42.7165C40.5738 37.3291 40.5738 31.969 40.5738 26.6089C39.6175 26.6089 38.6885 26.6089 37.7323 26.6089ZM42.1311 58.2771C47.541 58.2771 52.8688 58.2771 58.1967 58.2771C58.1967 57.2926 58.1967 56.3355 58.1967 55.433C52.8142 55.433 47.4863 55.433 42.1311 55.433C42.1311 56.3902 42.1311 57.32 42.1311 58.2771ZM25.5191 21.3856C28.4973 21.3856 31.4208 21.3856 34.3443 21.3856C34.3443 20.4011 34.3443 19.4713 34.3443 18.5415C31.3934 18.5415 28.4699 18.5415 25.5191 18.5415C25.5191 19.4986 25.5191 20.4284 25.5191 21.3856ZM28.5246 23.0811C28.5246 24.9681 28.5246 26.8004 28.5246 28.66C29.5082 28.66 30.4372 28.66 31.3661 28.66C31.3661 26.773 31.3661 24.9407 31.3661 23.0811C30.4098 23.0811 29.4809 23.0811 28.5246 23.0811ZM31.3661 16.8459C31.3661 16.3263 31.3661 15.8341 31.3661 15.3418C30.3825 15.3418 29.4535 15.3418 28.5246 15.3418C28.5246 15.8614 28.5246 16.3537 28.5246 16.8459C29.4809 16.8459 30.3825 16.8459 31.3661 16.8459Z" fill="#136CF2"/>
</svg>
