<svg width="61" height="58" viewBox="0 0 61 58" fill="none" xmlns="http://www.w3.org/2000/svg">
<path d="M60.607 18.2212C60.2862 18.8918 59.7615 19.125 59.0326 19.125C58.0996 19.0959 57.1958 19.125 56.2337 19.125C56.2337 20.0872 56.2337 20.9618 56.2337 21.8656C56.2337 22.9735 55.7672 23.44 54.6593 23.44C53.7555 23.44 52.8517 23.44 51.8604 23.44C51.8604 24.3147 51.8604 25.1602 51.8604 26.0057C51.8604 27.3468 51.4522 27.7258 50.1111 27.7258C49.2364 27.7258 48.3909 27.7258 47.4579 27.7258C47.4579 28.6297 47.4579 29.5043 47.4579 30.379C47.4579 31.516 47.1372 31.895 45.9127 32.07C46.0877 32.2449 46.2334 32.4198 46.3792 32.5656C48.6824 34.8397 51.0149 37.0847 53.3181 39.3588C54.8925 40.904 55.184 42.8574 54.1636 44.6359C52.9391 46.7642 49.907 47.4348 47.9244 45.9479C47.6329 45.7146 47.3413 45.4814 47.0789 45.219C44.455 42.6533 41.831 40.0877 39.207 37.522C39.0612 37.3762 38.9154 37.2596 38.6822 37.0264C38.6822 37.7553 38.6822 38.3675 38.6822 38.9798C38.6822 40.2335 38.274 40.6416 36.9912 40.6416C36.1165 40.6416 35.2127 40.6416 34.2506 40.6416C34.2506 41.458 34.1923 42.2452 34.2506 43.0032C34.3089 43.8779 34.0465 44.5776 33.3468 45.1315C33.1718 45.2482 33.0552 45.4523 32.8803 45.5689C32.5596 45.8021 32.5304 46.0354 32.7054 46.4144C33.2593 47.6389 33.1718 48.8926 32.7637 50.1171C31.6849 53.1492 29.6732 55.5108 27.1076 57.3768C25.9997 58.1931 24.746 58.2223 23.6381 57.3768C22.7342 56.7062 21.8887 55.9482 21.1599 55.1026C20.2269 54.0239 20.256 52.7119 20.7808 51.4291C20.8683 51.2542 20.9558 51.0792 21.0724 50.846C18.9732 48.8051 16.9032 46.7642 14.8624 44.7817C14.1335 44.9566 13.4921 45.1899 12.8215 45.2773C11.6844 45.4231 10.7223 44.9858 9.93507 44.2277C9.35197 43.6738 8.79803 43.0907 8.27324 42.4493C7.34027 41.283 7.22368 39.8544 8.15665 38.6882C10.285 36.0643 12.8214 33.9359 16.2035 33.0613C17.3405 32.7697 18.4776 32.8863 19.5563 33.3528C19.7021 33.4111 19.9937 33.4111 20.1103 33.3237C22.7343 31.1079 25.3582 28.8921 28.0113 26.6471C27.8947 26.5013 27.7781 26.3555 27.6615 26.2389C25.9413 24.5771 24.2503 22.9152 22.5301 21.2242C22.2969 20.991 22.0929 20.9035 21.7721 20.9618C21.0141 21.0784 20.2561 21.1076 19.498 21.2242C19.2648 21.2534 18.9441 21.37 18.7983 21.5449C18.0986 22.5071 17.4571 23.4692 16.7866 24.4605C16.5825 24.7812 16.6408 25.0727 16.8449 25.4517C17.6612 26.9095 17.6321 28.3673 16.7283 29.7667C15.8536 31.137 14.5416 31.7493 12.9089 31.7201C11.7135 31.691 10.7223 31.1662 9.87678 30.3498C7.07787 27.6092 4.2498 24.8686 1.4509 22.128C-0.210954 20.4953 -0.473337 18.1921 0.809495 16.5011C2.15064 14.6934 4.4539 14.2561 6.52392 15.3349C6.72801 15.4515 7.10706 15.4806 7.28199 15.364C8.38989 14.6934 9.49773 13.9646 10.5765 13.2065C10.6931 13.1191 10.7514 12.8567 10.7514 12.6817C10.5765 7.69617 14.804 3.61443 19.8188 3.73105C20.1395 3.73105 20.5476 3.55612 20.81 3.35203C22.9967 1.4861 25.4457 0.23242 28.3612 0.028333C31.0143 -0.146599 33.4925 0.494817 35.7958 1.77765C36.9037 2.38991 37.9533 3.1771 38.9738 3.93514C39.6152 4.40162 39.7026 4.98473 39.4402 5.53868C39.1486 6.09263 38.6239 6.29672 37.8658 6.09263C36.1748 5.62615 34.6296 6.15094 33.2302 6.93813C31.6558 7.81279 30.198 8.89154 28.6819 9.91197C28.5362 10.0286 28.4195 10.3493 28.4487 10.5534C28.7402 11.9237 28.7111 13.2648 28.4196 14.606C28.3904 14.7517 28.4195 15.0141 28.5362 15.1308C30.5187 17.1133 32.5305 19.0667 34.5422 21.0201C34.5713 21.0493 34.6005 21.0493 34.6879 21.0784C36.379 19.6498 38.0699 18.2212 39.7609 16.7635C43.7261 13.4106 47.6912 10.0577 51.6563 6.70489C52.7642 5.77192 53.4056 5.88854 54.1636 7.11306C56.3211 10.6117 58.4495 14.1103 60.607 17.5798C60.607 17.5798 60.6361 17.609 60.6653 17.609C60.6069 17.7256 60.607 17.9588 60.607 18.2212ZM52.531 9.00816C42.2391 17.7256 31.9765 26.4139 21.6847 35.1313C24.7751 38.1343 27.8073 41.1081 30.8103 44.0528C31.6266 43.5572 31.9473 42.9449 31.8598 42.0411C31.7724 41.1956 31.8307 40.3209 31.8598 39.4463C31.889 38.6882 32.2972 38.2509 33.0552 38.1634C33.3759 38.1343 33.6966 38.1343 33.9882 38.1343C34.7171 38.1343 35.4751 38.1343 36.2331 38.1343C36.2331 37.143 36.2331 36.2392 36.2331 35.3354C36.2331 34.3441 36.6996 33.8776 37.6618 33.8485C37.9242 33.8485 38.2157 33.8485 38.4781 33.8485C39.1779 33.8485 39.8775 33.8485 40.5481 33.8485C40.5773 33.7027 40.5773 33.6735 40.5773 33.6444C40.5773 32.828 40.5773 31.9825 40.5773 31.1662C40.5773 30.0291 41.0146 29.5918 42.1517 29.5918C43.0846 29.5918 43.9885 29.5918 44.8923 29.5918C44.9506 29.4752 44.9797 29.446 44.9797 29.4169C44.9797 28.6005 44.9797 27.8133 45.0089 26.997C45.0089 25.685 45.4171 25.306 46.6999 25.306C47.5746 25.306 48.4784 25.306 49.4114 25.306C49.4114 24.4021 49.4114 23.5858 49.4114 22.7694C49.4114 21.3992 49.7904 21.0201 51.1607 21.0201C52.0353 21.0201 52.8808 21.0201 53.7263 21.0201C53.7554 20.9035 53.7846 20.8744 53.7846 20.8452C53.7846 20.0289 53.7846 19.1833 53.8138 18.367C53.8138 17.2008 54.2511 16.7635 55.4173 16.7635C56.0004 16.7635 56.5835 16.7635 57.2541 16.7635C55.6214 14.052 54.0762 11.5447 52.531 9.00816ZM14.5999 22.9152C15.5329 21.749 16.4367 20.6411 17.3114 19.5041C17.8362 18.8043 18.4776 18.6586 19.3231 18.746C22.1511 19.0376 25.0958 16.9967 25.9122 14.2853C26.3204 12.9441 26.2912 11.6321 25.8247 10.3493C25.6206 9.7662 25.6206 9.21224 26.1163 8.77492C28.0405 7.11306 30.0814 5.56784 32.4138 4.51825C33.0552 4.22669 33.7258 3.99345 34.4547 3.7019C33.0552 2.94386 31.6266 2.50653 30.1105 2.36075C26.816 2.0692 24.1045 3.41034 21.8013 5.59699C21.3348 6.03432 20.8683 6.1801 20.2561 6.09263C16.1452 5.62615 12.7631 9.00816 13.2005 13.1191C13.2588 13.7022 13.113 14.1686 12.6465 14.5185C11.422 15.4515 10.1975 16.4136 8.94382 17.3757C10.8098 19.2125 12.734 21.0784 14.5999 22.9152ZM17.6321 35.1313C17.603 35.1896 17.5738 35.2188 17.5446 35.2771C17.3405 35.3062 17.1073 35.3062 16.9032 35.3354C14.0169 36.0059 11.976 37.8719 10.11 40.0002C9.84764 40.2918 9.96427 40.6416 10.1975 40.904C10.5474 41.3122 10.8972 41.6912 11.2762 42.0702C12.1801 43.0032 12.8214 43.0615 13.871 42.2743C14.7749 41.6038 15.2414 41.6329 16.0286 42.4201C18.3027 44.6359 20.5768 46.8517 22.8509 49.0675C24.192 50.3795 24.192 50.3795 23.2007 51.983C22.7926 52.6536 22.7342 53.1784 23.2007 53.674C23.6964 54.1988 24.2503 54.6945 24.8043 55.161C25.2124 55.5108 25.679 55.5108 26.0871 55.1026C26.6119 54.607 27.1659 54.1114 27.6615 53.5866C28.8569 52.3037 29.9647 50.9334 30.4895 49.2133C30.8103 48.1345 30.6937 47.2016 29.7898 46.3269C26.1746 42.8866 22.6468 39.3588 19.0607 35.8893C18.6525 35.5686 18.0986 35.3937 17.6321 35.1313ZM13.0547 29.3585C13.0838 29.3294 13.113 29.2711 13.1422 29.2419C13.3171 29.2128 13.492 29.2128 13.667 29.1545C15.0664 28.7463 15.4746 27.1427 14.3958 26.064C12.734 24.4021 11.043 22.7694 9.35197 21.1368C8.12745 19.9414 6.93208 18.746 5.70756 17.5798C4.86206 16.7926 3.69585 16.8218 2.93781 17.609C2.23808 18.3378 2.26728 19.4166 3.05447 20.2038C5.91169 23.0318 8.79802 25.8308 11.6844 28.6297C12.0634 28.9795 12.5882 29.1253 13.0547 29.3585ZM41.5685 36.2975C41.5977 36.385 41.6269 36.4141 41.656 36.4433C44.1342 38.8632 46.6124 41.3122 49.0906 43.7029C49.907 44.4901 51.1023 44.4318 51.8312 43.6155C52.5309 42.8574 52.4727 41.837 51.598 40.9915C48.8866 38.3384 46.146 35.6852 43.4345 33.0321C43.3471 32.9446 43.2012 32.8572 43.0263 32.7114C43.0263 33.3528 43.0263 33.9068 43.0263 34.4607C43.0555 35.7435 42.8514 36.0351 41.5685 36.2975ZM32.7345 22.5654C30.8685 20.7577 29.061 18.9793 27.4574 17.4049C26.5828 18.3378 25.7664 19.2125 24.8917 20.1163C26.3787 21.5449 28.128 23.2651 29.8773 24.9852C30.8686 24.1397 31.7724 23.3817 32.7345 22.5654Z" fill="#136CF2"/>
<path d="M18.9441 39.184C19.119 39.3006 19.4688 39.4172 19.7312 39.6504C21.8596 41.7205 23.9879 43.7905 26.1162 45.8897C26.6702 46.4436 26.6994 47.2017 26.2329 47.6681C25.7372 48.1638 25.0083 48.1638 24.4544 47.6098C22.326 45.5398 20.1977 43.4698 18.0694 41.3706C17.6612 40.9624 17.4863 40.4668 17.6904 39.9128C17.8653 39.4464 18.2735 39.2423 18.9441 39.184Z" fill="#136CF2"/>
</svg>
