<svg width="52" height="53" viewBox="0 0 52 53" fill="none" xmlns="http://www.w3.org/2000/svg">
<path d="M0.0245671 48.8514C0.147433 48.6056 0.245725 48.3353 0.393164 48.0896C0.884626 47.2787 1.6218 46.8364 2.55558 46.8118C3.51393 46.7872 4.49687 46.8118 5.45522 46.8118C5.62723 46.8118 5.77468 46.8118 6.02041 46.8118C2.67847 43.7402 1.67095 40.1771 3.53851 36.0488C4.98832 32.8543 7.88797 31.2816 12.1637 31.2079C12.3849 30.0038 13.0483 29.1929 14.3015 28.9471C15.5548 28.7014 16.4394 29.3649 17.2258 30.2987C18.7247 28.7997 20.1745 27.3253 21.6243 25.8755C29.9055 17.5698 38.2112 9.28864 46.4923 0.982925C47.0575 0.417743 47.6964 0 48.5319 0C49.6377 0 50.4486 0.491463 50.9155 1.49896C51.3824 2.50646 51.2104 3.48938 50.4978 4.32487C50.3503 4.49688 50.1783 4.66889 50.0063 4.84091C40.4474 14.3999 30.913 23.9342 21.354 33.4932C21.2066 33.6406 21.01 33.7143 20.8134 33.8618C21.7963 34.7464 22.4844 35.6065 22.2141 36.8597C21.9683 38.0638 21.1574 38.7272 19.9779 38.973C19.9288 39.833 19.9042 40.6685 19.8551 41.5777C23.4427 41.4549 25.6052 43.1013 26.0966 46.7626C28.0133 46.7626 29.9546 46.7626 31.9205 46.7626C31.5764 44.8951 31.2324 43.0521 30.8884 41.2091C30.4952 39.1204 30.1021 37.0317 29.6843 34.943C29.6597 34.771 29.5369 34.5252 29.3894 34.4761C28.3082 34.0583 27.5956 32.8297 27.7676 31.6993C27.9642 30.4707 28.7751 29.7089 30.1758 29.4632C30.2249 29.4632 30.2741 29.4386 30.3478 29.414C30.4215 28.2345 30.8638 27.2024 31.9205 26.6127C32.6822 26.1949 33.1491 25.6789 33.5669 24.9663C34.2549 23.7868 35.4099 23.3199 36.7614 23.4428C37.0808 23.4673 37.2774 23.4182 37.4986 23.1725C38.7272 21.8209 40.2753 21.354 42.02 21.8947C43.7402 22.4107 44.7722 23.6393 45.0179 25.4332C45.0917 25.9001 45.2145 26.1704 45.706 26.3915C46.8609 26.9076 47.5244 27.8659 47.6719 29.1437C47.6719 29.2174 47.6964 29.3157 47.6964 29.3895C47.6964 29.414 47.721 29.414 47.721 29.4386C47.9667 29.4877 48.237 29.5369 48.4827 29.6106C49.5394 29.9792 50.1537 30.7656 50.252 31.8713C50.3258 32.9526 49.8588 33.8372 48.8759 34.3287C48.5073 34.5252 48.3599 34.7464 48.2862 35.1641C47.5736 38.973 46.8609 42.7818 46.1483 46.5661C46.1483 46.6398 46.1483 46.6889 46.1483 46.8118C47.2787 46.8118 48.3845 46.7872 49.4902 46.8118C50.7189 46.8364 51.7018 47.6964 51.9476 48.9251C52.1933 50.0555 51.5544 51.2841 50.4732 51.7756C50.2766 51.8739 50.0554 51.923 49.8588 52.0213C33.96 52.0213 18.0367 52.0213 2.13785 52.0213C1.03206 51.7019 0.319451 50.9892 0 49.8834C0.0245731 49.5394 0.0245671 49.1954 0.0245671 48.8514ZM24.2537 46.8118C24.2782 45.018 22.8776 43.4699 21.1575 43.3716C20.4448 43.3224 19.7322 43.347 19.0196 43.347C18.1841 43.347 17.324 43.3716 16.4886 43.347C15.948 43.3224 15.6285 42.9784 15.6285 42.4869C15.6285 41.9955 15.9479 41.676 16.5131 41.6269C16.8817 41.6023 17.2503 41.6023 17.6189 41.6269C17.9384 41.6514 18.0612 41.504 18.0858 41.2337C18.1104 40.3982 18.1104 39.5873 18.1104 38.7518C18.1104 38.6044 17.9875 38.4078 17.8646 38.2849C16.2182 36.6385 14.5719 34.9676 12.9009 33.3457C12.778 33.2229 12.5814 33.0754 12.4094 33.0508C7.91255 32.1662 3.63682 36.3928 4.44773 40.9388C5.06206 44.4282 7.86338 46.8118 11.4019 46.8118C15.5056 46.8118 19.6093 46.8118 23.7376 46.8118C23.8851 46.8118 24.0571 46.8118 24.2537 46.8118ZM44.3545 46.7872C45.1163 42.7327 45.878 38.7272 46.6152 34.6973C41.504 34.6973 36.4665 34.6973 31.3799 34.6973C32.1416 38.7518 32.9034 42.7572 33.6406 46.7872C37.2528 46.7872 40.7914 46.7872 44.3545 46.7872ZM25.9983 48.5565C18.3807 48.5565 10.763 48.5565 3.14534 48.5565C2.97333 48.5565 2.80132 48.5565 2.62931 48.5565C2.0887 48.5811 1.74469 48.9251 1.72012 49.392C1.69555 49.8834 2.0887 50.252 2.62931 50.2766C2.75218 50.2766 2.87505 50.2766 2.97334 50.2766C18.307 50.2766 33.6406 50.2766 48.9742 50.2766C49.8097 50.2766 50.252 49.9572 50.2274 49.392C50.2029 48.8268 49.8097 48.5565 48.9742 48.5565C41.332 48.5565 33.6652 48.5565 25.9983 48.5565ZM19.6585 32.7068C19.7322 32.6331 19.8059 32.584 19.8551 32.5348C29.5614 22.8284 39.2924 13.0975 48.9988 3.39109C49.0971 3.2928 49.1954 3.19451 49.2691 3.09621C49.4903 2.72762 49.4657 2.35902 49.1708 2.015C48.8759 1.69555 48.409 1.67097 48.065 1.9167C47.9176 2.015 47.8193 2.13786 47.6964 2.26073C38.0883 11.8688 28.4557 21.5015 18.8476 31.1096C18.7247 31.2324 18.5281 31.2816 18.3315 31.3799C18.8722 31.9205 19.2408 32.2891 19.6585 32.7068ZM45.9026 29.4386C45.878 28.4311 45.1899 27.7922 44.207 27.7185C43.4698 27.6693 43.1995 27.3499 43.2733 26.5881C43.2978 26.2932 43.347 26.0229 43.3224 25.7281C43.1995 24.5731 42.3886 23.6639 41.3074 23.4428C40.1525 23.197 39.0713 23.6885 38.4569 24.7206C38.0638 25.384 37.7689 25.5069 37.0808 25.2366C35.9013 24.7943 34.8447 25.4332 34.6727 26.6864C34.5498 27.4482 34.4024 27.5956 33.6652 27.6939C32.7314 27.7922 32.0925 28.5048 32.1416 29.3895C36.7122 29.4386 41.3074 29.4386 45.9026 29.4386ZM38.9484 32.928C41.8235 32.928 44.6985 32.928 47.5736 32.928C48.1387 32.928 48.5073 32.584 48.5319 32.0925C48.5565 31.601 48.1633 31.2324 47.5736 31.1833C47.4753 31.1833 47.377 31.1833 47.2787 31.1833C41.7743 31.1833 36.2453 31.1833 30.741 31.1833C30.5444 31.1833 30.3232 31.1833 30.1266 31.2324C29.4632 31.4045 29.2174 32.2154 29.7335 32.6577C29.9301 32.8297 30.2741 32.9034 30.5689 32.9034C33.3703 32.9526 36.1716 32.928 38.9484 32.928ZM20.5186 36.2454C20.4448 36.1225 20.3465 35.8768 20.1991 35.7047C18.6264 34.1075 17.0537 32.5348 15.4565 30.9621C15.309 30.8147 15.137 30.7164 14.9404 30.6673C14.5473 30.569 14.2278 30.7164 14.0312 31.0604C13.8101 31.4782 13.8838 31.8468 14.2032 32.1662C15.8005 33.7635 17.3732 35.3607 18.9704 36.9334C19.0687 37.0317 19.1916 37.1054 19.2899 37.1546C19.8797 37.4494 20.5186 37.0071 20.5186 36.2454Z" fill="#136CF2"/>
<path d="M0.0245671 19.6093C0.294871 19.2407 0.663468 19.0933 1.13036 19.0687C3.14535 18.9213 4.44772 17.7418 4.96376 15.5548C5.08662 15.0387 5.13578 14.5227 5.18492 14.0066C5.23407 13.3923 5.55352 13.0237 6.04498 12.9991C6.56102 12.9991 6.83132 13.3432 6.92961 13.9575C7.07705 14.8176 7.19992 15.7022 7.51937 16.5131C8.1337 18.1104 9.36235 18.9704 11.0825 19.0687C11.1562 19.0687 11.2299 19.0687 11.279 19.0687C11.7951 19.1179 12.1145 19.4373 12.1145 19.9042C12.1145 20.3711 11.7951 20.7151 11.3036 20.7888C10.8613 20.8625 10.3944 20.8625 9.95211 20.9854C8.232 21.526 7.4948 22.9021 7.1262 24.5239C7.02791 24.9663 6.97875 25.4331 6.92961 25.8755C6.85589 26.5144 6.56101 26.8584 6.06955 26.8584C5.55351 26.8584 5.23407 26.4898 5.18492 25.8263C5.13578 24.8434 4.91461 23.885 4.4723 23.0004C3.75968 21.6243 2.65387 20.8625 1.08119 20.8134C0.589731 20.8134 0.245731 20.6168 0 20.1991C0.0245731 20.0271 0.0245671 19.8059 0.0245671 19.6093ZM4.22656 19.9533C4.84089 20.666 5.47979 21.4032 6.06955 22.0666C6.6593 21.4032 7.2982 20.6414 7.91253 19.9533C7.2982 19.2407 6.6593 18.5035 6.06955 17.8401C5.47979 18.5035 4.84089 19.2407 4.22656 19.9533Z" fill="#136CF2"/>
<path d="M32.0678 9.50976C32.0678 9.97665 31.7484 10.3452 31.2569 10.3944C30.618 10.4681 29.9791 10.4927 29.3402 10.6401C27.0549 11.1807 25.6297 12.7288 24.8925 14.8913C24.5485 15.8988 24.4256 17.0046 24.2781 18.0612C24.1799 18.7001 23.9096 19.0933 23.3935 19.0933C22.8775 19.0933 22.5826 18.7247 22.5335 18.0612C22.4352 16.5868 22.1403 15.137 21.4277 13.8346C20.3465 11.7951 18.6509 10.6647 16.341 10.4681C16.0707 10.4435 15.8004 10.4435 15.5301 10.419C15.0387 10.3698 14.7438 10.0504 14.7192 9.58348C14.6946 9.14116 14.9895 8.77257 15.481 8.69885C15.8987 8.6497 16.3165 8.6497 16.7342 8.60055C19.4127 8.20739 21.0836 6.61013 21.9191 4.12825C22.2386 3.12075 22.3615 2.06411 22.5335 1.00746C22.6318 0.393133 22.9021 0.0245361 23.4181 0.0245361C23.9096 0.0245361 24.2536 0.393133 24.2781 1.00746C24.3273 2.45728 24.6468 3.85794 25.3102 5.16032C26.4406 7.39647 28.2836 8.55141 30.7655 8.67427C30.9866 8.67427 31.2078 8.69885 31.4289 8.74799C31.8467 8.82171 32.0187 9.11659 32.0678 9.50976ZM27.2269 9.53433C25.4331 8.52684 24.1799 7.12617 23.3935 5.20946C22.6072 7.12617 21.354 8.55141 19.5601 9.53433C21.3785 10.5418 22.6072 11.9671 23.3935 13.8838C24.1799 11.9671 25.4577 10.5664 27.2269 9.53433Z" fill="#136CF2"/>
<path d="M41.627 16.4886C41.627 15.0633 42.7327 13.9084 44.1826 13.8838C45.6324 13.8592 46.8119 15.0142 46.8365 16.464C46.8365 17.8892 45.657 19.0933 44.2317 19.0933C42.7819 19.0687 41.627 17.9138 41.627 16.4886ZM45.0672 16.464C45.0672 15.9971 44.674 15.6039 44.1826 15.6285C43.6911 15.6285 43.3471 16.0217 43.3471 16.5131C43.3716 16.98 43.7402 17.3486 44.2071 17.3486C44.674 17.3486 45.0918 16.9309 45.0672 16.464Z" fill="#136CF2"/>
<path d="M48.532 19.0934C49.9818 19.0934 51.1367 20.2483 51.1367 21.6981C51.1367 23.1234 49.9818 24.2783 48.5565 24.2783C47.1313 24.2783 45.9272 23.0988 45.9518 21.6736C45.9518 20.2483 47.1067 19.0934 48.532 19.0934ZM49.392 21.6981C49.392 21.2067 49.0234 20.8381 48.532 20.8381C48.0405 20.8381 47.6473 21.2312 47.6719 21.6981C47.6719 22.1405 48.0651 22.5336 48.5074 22.5582C48.9743 22.5582 49.392 22.165 49.392 21.6981Z" fill="#136CF2"/>
<path d="M11.3773 1.67102C11.5984 1.84303 11.9179 1.99047 12.0162 2.2362C12.1145 2.48193 12.1145 2.92425 11.9425 3.12083C11.5002 3.66144 10.9841 4.15291 10.4435 4.6198C10.1241 4.91467 9.63261 4.84095 9.33773 4.5215C9.04285 4.22662 8.99369 3.71059 9.264 3.41571C9.73089 2.89968 10.2223 2.40821 10.7384 1.94132C10.8858 1.81846 11.107 1.76931 11.3773 1.67102Z" fill="#136CF2"/>
<path d="M9.90305 5.52893C10.1979 5.70094 10.4437 5.77466 10.6402 5.94667C11.058 6.31527 11.4512 6.73301 11.8198 7.12618C12.2129 7.54393 12.2375 8.08454 11.8689 8.42856C11.5249 8.77258 11.0088 8.74801 10.6157 8.35484C10.1979 7.9371 9.73104 7.54393 9.38702 7.07704C9.215 6.85588 9.14129 6.41356 9.23958 6.14326C9.28873 5.89753 9.63274 5.75009 9.90305 5.52893Z" fill="#136CF2"/>
<path d="M5.9713 8.72357C5.77472 8.57613 5.4307 8.42869 5.33241 8.18296C5.23412 7.93723 5.2587 7.49491 5.40614 7.29833C5.82388 6.75772 6.33989 6.29083 6.85593 5.82394C7.17538 5.55363 7.69142 5.60278 7.96172 5.89766C8.2566 6.21711 8.35489 6.63485 8.08459 6.9543C7.59312 7.51948 7.05254 8.01095 6.51193 8.52698C6.41364 8.62527 6.24161 8.64985 5.9713 8.72357Z" fill="#136CF2"/>
<path d="M8.28114 3.98088C8.1337 4.17747 8.01083 4.49692 7.78968 4.61978C7.56852 4.74265 7.1262 4.76722 6.95418 4.61978C6.36443 4.12832 5.82383 3.58771 5.33236 3.02253C5.06206 2.70308 5.18492 2.30991 5.4798 2.01503C5.7501 1.74473 6.14328 1.62186 6.43816 1.86759C7.02791 2.38363 7.56853 2.97338 8.10914 3.53857C8.20743 3.61229 8.20742 3.75972 8.28114 3.98088Z" fill="#136CF2"/>
<path d="M41.1844 38.1374C40.7421 38.1374 40.2998 38.162 39.8575 38.1374C39.3414 38.1129 39.022 37.7688 39.022 37.302C39.022 36.8351 39.3414 36.4665 39.8329 36.4419C40.7175 36.4173 41.6267 36.4173 42.5114 36.4419C43.0028 36.4665 43.3468 36.8596 43.3223 37.302C43.3223 37.7688 42.9782 38.1129 42.4868 38.1374C42.0445 38.162 41.6267 38.1374 41.1844 38.1374Z" fill="#136CF2"/>
<path d="M35.5328 38.1374C35.2379 38.1374 34.9185 38.162 34.6236 38.1374C34.1321 38.0883 33.8373 37.7688 33.8127 37.3265C33.7881 36.8842 34.083 36.491 34.5499 36.4419C35.2134 36.3927 35.8768 36.3927 36.5157 36.4419C36.9826 36.4665 37.2775 36.8842 37.2529 37.3265C37.2284 37.7688 36.9089 38.0883 36.442 38.1374C36.1471 38.1374 35.8523 38.1374 35.5328 38.1374Z" fill="#136CF2"/>
</svg>
