<svg width="61" height="61" viewBox="0 0 61 61" fill="none" xmlns="http://www.w3.org/2000/svg">
<path d="M60.3706 53.9145C60.0191 55.0859 59.5799 56.1988 58.8477 57.1945C56.007 61.0016 50.3257 61.6166 46.9286 58.3366C42.77 54.3538 38.7579 50.2246 34.6872 46.1539C34.1308 45.5975 34.1601 45.0996 34.6872 44.5139C34.8629 44.3382 35.0386 44.1332 35.1851 43.9282C35.5072 43.4596 35.4194 42.9032 35.0386 42.5225C34.6579 42.1711 34.0722 42.1125 33.6329 42.4053C33.4865 42.4932 33.3694 42.6396 33.223 42.7568C32.4323 43.5182 32.0222 43.5182 31.2315 42.7275C30.5873 42.0832 29.9429 41.4096 29.2987 40.7361C29.1815 40.8239 29.0937 40.8825 29.0058 40.9411C27.3951 42.5518 25.7845 44.1332 24.2323 45.7439C24.0566 45.9196 23.998 46.3589 24.0566 46.6225C24.5544 50.4588 23.5002 53.8267 20.8645 56.6674C15.5931 62.378 5.9582 61.4409 1.88752 54.7931C-2.27102 47.9989 0.833228 39.4182 8.38888 36.8704C10.1753 36.2554 12.0495 36.109 13.9238 36.4311C14.3338 36.519 14.5974 36.4018 14.9195 36.109C21.9773 29.0219 29.0644 21.9348 36.1515 14.877C36.4444 14.5842 36.5322 14.3206 36.4736 13.9106C35.5365 7.23351 39.7829 1.37642 46.4307 0.146427C46.7235 0.0878564 47.0164 0.0585709 47.28 0C47.9828 0 48.6857 0 49.4178 0C49.9157 0.0878564 50.4135 0.204998 50.9113 0.292855C51.4092 0.380711 51.8485 0.527138 51.9949 1.05428C52.1706 1.6107 51.8778 1.99141 51.4971 2.34284C49.5935 4.21711 47.7193 6.12066 45.8157 7.99493C45.5814 8.22921 45.4936 8.43421 45.6107 8.75635C46.1086 10.1328 46.5185 11.5092 47.0164 12.8856C47.1042 13.1199 47.3678 13.3542 47.5728 13.442C48.8907 13.9106 50.2671 14.3206 51.5849 14.7892C51.9949 14.9356 52.2292 14.8477 52.4928 14.5549C54.3378 12.6806 56.212 10.8356 58.0863 8.96135C58.4377 8.60992 58.7892 8.2585 59.3749 8.43421C59.9313 8.60992 60.0777 9.04921 60.1656 9.57634C60.1949 9.83991 60.312 10.1035 60.3706 10.3671C60.3706 11.5092 60.3706 12.6513 60.3706 13.7935C60.3413 13.9106 60.2827 14.057 60.2535 14.1742C59.2285 20.5877 52.9028 25.0976 46.5185 23.9848C46.1378 23.9262 45.9035 24.0141 45.64 24.2776C44.1171 25.8298 42.5943 27.3526 41.0715 28.8755C40.9543 28.9926 40.8665 29.1097 40.7786 29.1976C40.8079 29.2562 40.8371 29.3147 40.8664 29.344C41.4521 29.9297 42.0672 30.5447 42.6529 31.1304C43.5314 32.009 43.5607 32.3897 42.6822 33.2976C42.0965 33.9126 42.0379 34.5276 42.5358 35.0254C43.0336 35.5233 43.6779 35.494 44.2929 34.879C45.2007 34.0297 45.5521 34.0297 46.4014 34.879C50.2085 38.6861 54.0156 42.4932 57.8227 46.3003C58.1742 46.6517 58.5256 47.0617 58.8477 47.4424C59.6384 48.4089 60.0191 49.551 60.3706 50.7224C60.3706 51.806 60.3706 52.8603 60.3706 53.9145ZM48.8907 2.04998C47.28 1.90355 45.2886 2.31355 43.8243 3.07497C39.7243 5.18353 37.6158 9.54706 38.5529 14.0863C38.6993 14.7892 38.5529 15.3163 38.0257 15.8141C30.5872 23.2234 23.178 30.6326 15.7981 38.0418C15.3295 38.5104 14.8609 38.5982 14.2167 38.5397C13.0452 38.4225 11.8445 38.2468 10.7024 38.3932C5.81173 39.0375 2.2975 42.9032 1.94608 47.8232C1.59465 52.626 5.02105 57.2531 9.70672 58.2781C17.0867 59.8888 23.4123 53.7095 21.9481 46.271C21.8016 45.5975 21.948 45.1289 22.4459 44.631C25.3452 41.7611 28.2151 38.8911 31.0851 35.9918C35.6244 31.4526 40.1636 26.9426 44.6735 22.4034C45.1421 21.9348 45.6107 21.7298 46.3135 21.8762C47.075 22.0519 47.8657 22.1398 48.6564 22.1105C53.3421 21.9934 57.2663 18.772 58.2327 14.1742C58.4084 13.3542 58.4085 12.5049 58.4963 11.6556C58.4085 11.597 58.2913 11.5678 58.2035 11.5092C58.0863 11.6849 57.9984 11.9192 57.852 12.0656C56.3584 13.5885 54.8356 15.0527 53.3714 16.5756C52.9321 17.0441 52.4635 17.1906 51.8485 16.9563C50.0328 16.312 48.2171 15.7263 46.3721 15.1406C45.845 14.9649 45.4935 14.6427 45.3471 14.1156C44.7321 12.2706 44.1464 10.4256 43.5021 8.58064C43.2971 8.02421 43.4143 7.55565 43.8243 7.14565C45.3764 5.62281 46.9286 4.07068 48.4514 2.51855C48.5685 2.40141 48.6857 2.25498 48.8907 2.04998ZM56.9149 48.3796C53.0199 44.5139 49.1542 40.6482 45.2592 36.7532C43.7657 37.6611 42.3014 37.6611 41.2471 36.5482C40.8079 36.0797 40.4564 35.4061 40.2807 34.7911C40.0171 33.8833 40.3686 33.034 40.8957 32.2726C40.3686 31.7162 39.8415 31.2183 39.3729 30.7497C36.5029 33.6197 33.633 36.4897 30.8216 39.3304C31.2608 39.7989 31.7879 40.2968 32.3151 40.8239C32.4322 40.7654 32.5787 40.6482 32.7251 40.5604C33.9844 39.8575 35.5072 40.0625 36.5322 41.0875C37.4986 42.0832 37.7329 43.6646 36.9715 44.836C36.7079 45.246 36.8251 45.4217 37.0886 45.7146C40.6614 49.2874 44.2343 52.8603 47.8071 56.4331C47.9828 56.6088 48.1878 56.7552 48.3342 56.9016C51.2335 54.061 54.0742 51.2203 56.9149 48.3796ZM58.057 50.3417C55.4799 52.9188 52.9028 55.4959 50.355 58.0438C52.4049 58.8345 55.0699 58.2488 56.5928 56.6674C58.3206 54.8517 58.9063 52.216 58.057 50.3417Z" fill="#136CF2"/>
<path d="M5.37241 0C7.53953 1.25927 9.70667 2.54783 11.9031 3.74854C12.6938 4.18782 13.1916 4.74424 13.2795 5.62281C13.5138 7.67279 14.5388 9.22492 16.0616 10.6599C19.5759 13.9984 22.9437 17.4834 26.3994 20.9391C26.5458 21.0855 26.7215 21.2027 26.868 21.3198C26.3408 21.8177 25.9015 22.2569 25.3744 22.7255C25.3158 22.6962 25.1694 22.5498 25.023 22.4034C20.923 18.3034 16.823 14.2034 12.7231 10.1035C12.4009 9.78134 12.1666 9.31277 12.0202 8.87349C11.7273 7.96564 11.5516 6.99922 11.2881 6.09137C11.2295 5.91566 11.1416 5.71066 10.9952 5.62281C9.09165 4.50996 7.15881 3.39711 5.28454 2.34284C4.28883 3.33854 3.29314 4.30496 2.29743 5.30067C3.35171 7.17494 4.46454 9.10778 5.57739 11.0113C5.66525 11.1578 5.89954 11.2749 6.10454 11.3335C6.83668 11.5385 7.56884 11.7728 8.33027 11.8899C9.20883 12.0363 9.85312 12.4756 10.4681 13.0906C14.4217 17.0734 18.3752 21.027 22.358 24.9805C22.5044 25.1269 22.6802 25.2441 22.9144 25.4198C22.358 25.9176 21.8894 26.3569 21.2451 26.9133C21.1865 26.8255 21.0987 26.5912 20.923 26.4155C16.9402 22.4327 12.9573 18.4206 8.94522 14.4377C8.68165 14.1742 8.30097 13.9984 7.94954 13.8813C6.98312 13.5885 5.98744 13.4127 5.05031 13.1199C4.6696 13.0027 4.23032 12.6806 4.02532 12.3585C2.73676 10.1913 1.47744 7.96564 0.247451 5.76923C-0.13326 5.12495 -0.0746608 4.74424 0.423192 4.21711C1.68247 2.95783 2.94174 1.66927 4.2303 0.409996C4.40601 0.234283 4.61098 0.117142 4.7867 0C4.9917 0 5.19669 0 5.37241 0Z" fill="#136CF2"/>
<path d="M12.1081 54.3832C11.171 54.3832 10.2631 54.3539 9.32599 54.3832C8.76957 54.3832 8.38887 54.2075 8.09601 53.7096C7.15888 52.1282 6.22172 50.5761 5.28458 49.0239C4.99173 48.5554 4.99173 48.1161 5.28458 47.6475C6.22172 46.0954 7.18817 44.514 8.09601 42.9618C8.35958 42.4933 8.74029 42.2883 9.26743 42.3176C11.1417 42.3176 13.0453 42.3176 14.9195 42.3176C15.4467 42.3176 15.7981 42.5226 16.091 42.9618C17.0281 44.5433 17.9652 46.0954 18.9023 47.6475C19.1952 48.1161 19.1952 48.5554 18.9023 49.0239C17.9652 50.5761 17.0281 52.1575 16.091 53.7096C15.7981 54.1782 15.4174 54.3832 14.861 54.3832C13.9531 54.3832 13.016 54.3832 12.1081 54.3832ZM12.0496 52.3332C12.0496 52.3625 12.0496 52.3625 12.0496 52.3918C12.7524 52.3918 13.4552 52.421 14.1581 52.3918C14.3338 52.3918 14.5974 52.2453 14.7146 52.0696C15.4174 50.9568 16.0909 49.8146 16.7352 48.6725C16.8231 48.4968 16.8524 48.2039 16.7645 48.0575C16.1203 46.9154 15.4467 45.7732 14.7438 44.6604C14.6559 44.4847 14.3924 44.3383 14.2166 44.3383C12.8109 44.309 11.4346 44.309 10.0289 44.3383C9.85317 44.3383 9.58956 44.4847 9.47242 44.6604C8.76957 45.7732 8.09603 46.9154 7.45175 48.0575C7.36389 48.2039 7.36389 48.5261 7.45175 48.6725C7.7446 49.2582 8.096 49.7854 8.44743 50.3418C8.85742 51.0153 9.12101 51.9525 9.70672 52.2746C10.3217 52.5968 11.2588 52.3332 12.0496 52.3332Z" fill="#136CF2"/>
<path d="M19.8394 41.8782C19.4001 41.4682 18.9608 41.029 18.5508 40.6482C25.9307 33.2683 33.2814 25.9177 40.6613 18.5377C41.042 18.9477 41.5106 19.387 41.9206 19.797C34.5407 27.1769 27.19 34.5276 19.8394 41.8782Z" fill="#136CF2"/>
<path d="M40.7493 41.9075C41.13 41.5268 41.5692 41.0583 41.9792 40.6483C45.3471 44.0161 48.6856 47.3546 52.0242 50.6932C51.6142 51.1032 51.1749 51.5424 50.7649 51.9232C47.4263 48.6139 44.0878 45.2754 40.7493 41.9075Z" fill="#136CF2"/>
</svg>
