<svg width="63" height="58" viewBox="0 0 63 58" fill="none" xmlns="http://www.w3.org/2000/svg">
<path d="M0 44.6638C0.483338 43.8421 0.990838 43.0204 1.47418 42.1746C1.95751 41.3529 2.29585 41.2562 3.16586 41.6912C3.33503 41.7638 3.60086 41.7396 3.77003 41.6429C4.54337 41.2321 5.31672 40.7729 6.06589 40.3137C6.21089 40.2171 6.40423 40.0721 6.42839 39.9271C6.62173 38.6946 6.62173 38.6945 7.99924 38.5254C7.99924 38.3079 7.99924 38.0662 7.99924 37.8245C7.99924 31.5895 7.99924 25.3544 7.99924 19.1435C7.99924 15.4701 10.3676 13.1018 14.0168 13.1018C14.911 13.1018 15.8052 13.1018 16.6993 13.1018C16.8685 12.2318 16.9893 11.3859 17.1827 10.5401C17.5452 8.92091 18.246 7.44673 19.1644 6.09338C19.6719 5.34421 20.131 5.17504 20.6385 5.51338C21.146 5.85171 21.1702 6.35922 20.6627 7.08423C16.2643 13.6093 18.9469 22.5027 26.2453 25.3786C30.2086 26.9494 34.0028 26.4903 37.6037 24.2186C37.7245 24.1461 37.8454 24.0494 37.9662 23.9769C38.4979 23.6386 39.0054 23.7111 39.2954 24.1219C39.6096 24.5569 39.5129 25.1369 39.0054 25.4269C37.8212 26.0794 36.6612 26.7803 35.4045 27.2636C34.2687 27.6986 33.0362 27.8678 31.7795 28.1578C31.7795 28.6653 31.7795 29.2695 31.7795 29.9461C32.1662 29.9461 32.577 29.9461 32.9637 29.9461C33.6403 29.9703 34.0512 30.3086 33.9545 30.9611C33.8337 31.9278 34.2445 32.2662 35.0904 32.6287C36.2504 33.1362 37.3137 33.9337 38.3771 34.6345C38.6671 34.8278 38.8121 34.8762 39.1021 34.707C40.6004 33.837 40.6971 33.8853 41.5671 35.3837C42.1229 36.3504 42.6788 37.317 43.2346 38.2837C43.6696 39.0571 43.5971 39.4921 42.8238 39.8787C42.1229 40.2171 41.9538 40.5796 42.0504 41.4012C42.1954 42.7304 42.0504 44.0838 41.9779 45.4371C41.9538 45.7996 42.0263 45.9688 42.3404 46.1621C43.7905 47.008 43.8146 47.0805 42.9688 48.5547C42.4129 49.5455 41.8329 50.5122 41.2771 51.503C40.8421 52.2522 40.4313 52.373 39.6821 51.9622C38.7637 51.4547 38.8121 51.503 37.9179 52.1072C36.6854 52.9047 35.4045 53.6055 34.1237 54.3305C34.0754 54.2822 34.0512 54.2339 34.0029 54.1855C34.0029 54.5964 34.0029 54.9831 34.0029 55.3939C33.9787 56.0222 33.6887 56.3847 33.0845 56.3847C31.5861 56.4089 30.0878 56.4089 28.5895 56.3847C27.9853 56.3847 27.5986 55.9981 27.6711 55.3939C27.8161 54.3789 27.3328 54.0405 26.4628 53.6539C25.3269 53.1705 24.3119 52.3972 23.2969 51.6964C23.0069 51.503 22.8377 51.4547 22.5236 51.6239C21.0494 52.4697 20.9527 52.4455 20.1069 50.9472C19.551 49.9805 18.9952 49.0138 18.4394 48.0713C18.0043 47.298 18.101 46.8871 18.8744 46.428C19.1402 46.2588 19.4302 46.0896 19.696 45.9446C19.5994 45.0263 19.4544 44.1079 19.4544 43.1654C19.4544 42.2713 19.5994 41.3529 19.696 40.4104C19.3819 40.2171 18.9952 40.0237 18.6569 39.7821C18.1494 39.4437 18.0285 39.0087 18.3185 38.4771C19.0435 37.1962 19.7685 35.9154 20.5177 34.6345C20.8077 34.1512 21.2427 34.0303 21.7744 34.272C21.9677 34.3687 22.1611 34.4895 22.3544 34.5862C22.5236 34.6828 22.7169 34.7795 22.7894 34.8278C23.9494 34.127 25.0369 33.4503 26.1244 32.7737C26.1969 32.7253 26.2694 32.7012 26.3419 32.677C27.3569 32.4837 27.8403 32.0003 27.6711 30.8645C27.5744 30.3086 28.0336 29.9703 28.6378 29.9461C29.0486 29.922 29.4353 29.9461 29.8703 29.9461C29.8703 29.2936 29.8703 28.6894 29.8703 28.1094C22.2336 26.9494 17.8352 22.5752 16.6752 14.9626C15.3943 14.9626 14.041 14.8176 12.736 14.9868C11.0201 15.2285 9.7876 16.8235 9.7876 18.5877C9.76343 25.1127 9.7876 31.662 9.7876 38.187C9.7876 38.2595 9.81176 38.3562 9.81176 38.4771C9.98093 38.5012 10.1259 38.5254 10.2709 38.5254C10.9959 38.5495 11.3101 38.8396 11.3101 39.5646C11.3101 39.9754 11.4551 40.1446 11.8176 40.3137C12.5668 40.6762 13.2676 41.1112 13.9443 41.5704C14.186 41.7396 14.3551 41.7879 14.621 41.6429C15.4185 41.1837 15.781 41.3046 16.2643 42.0779C16.6993 42.8271 17.1343 43.5763 17.5693 44.3254C17.9319 45.0021 17.8352 45.413 17.1827 45.7755C16.8443 45.9688 16.7718 46.1621 16.8202 46.5246C16.8685 47.3705 16.8685 48.2163 16.8202 49.0622C16.796 49.3763 16.8685 49.5213 17.1343 49.6905C17.9318 50.1738 18.0043 50.5122 17.5452 51.3338C17.1343 52.0589 16.6993 52.808 16.2643 53.533C15.8535 54.2097 15.4427 54.3547 14.766 53.9439C14.4276 53.7505 14.2343 53.823 13.9201 54.0164C13.2435 54.4755 12.5426 54.8622 11.8418 55.2247C11.5276 55.3697 11.3826 55.4906 11.3826 55.8772C11.3826 56.7231 11.0684 57.0131 10.2468 57.0131C9.37675 57.0372 8.50675 57.0372 7.63674 57.0131C6.81506 56.9889 6.50089 56.6989 6.50089 55.8772C6.50089 55.5147 6.3559 55.3939 6.04173 55.2247C5.31672 54.8622 4.59171 54.4272 3.89087 53.9922C3.62503 53.823 3.45587 53.7264 3.1417 53.9197C2.36836 54.3789 1.98168 54.258 1.52251 53.4605C1.01501 52.6147 0.531666 51.7447 0.024161 50.8988C0.024161 50.7055 0.024161 50.488 0.024161 50.2947C0.217496 50.1013 0.410841 49.8597 0.65251 49.763C1.01501 49.5938 1.03918 49.3522 1.01501 48.9897C0.942513 48.3372 0.918343 47.6605 0.966677 47.008C1.01501 46.428 1.16001 45.8963 0.435002 45.6546C0.265833 45.6063 0.169171 45.3646 0.0483368 45.2196C2.94934e-06 45.0746 0 44.8813 0 44.6638ZM40.0204 36.3504C39.8029 36.4712 39.6821 36.5437 39.5612 36.6162C38.4737 37.2445 38.4012 37.2204 37.4829 36.3262C36.3954 35.287 35.1387 34.5378 33.7128 34.0787C32.2628 33.6195 32.2628 33.6195 32.1662 32.0728C32.1662 32.0245 32.142 31.952 32.1178 31.8553C31.272 31.8553 30.402 31.8553 29.4836 31.8553C29.4836 32.1212 29.4836 32.3628 29.4836 32.6045C29.4836 33.4987 29.3145 33.7403 28.4445 33.9578C26.9461 34.3203 25.6411 35.0695 24.4811 36.0604C23.2486 37.1237 23.2486 37.1237 21.8227 36.4229C21.7986 36.3987 21.7502 36.4229 21.6535 36.3987C21.2185 37.1237 20.7836 37.897 20.3485 38.6704C20.6869 38.8637 20.9286 39.0329 21.1944 39.1779C21.7019 39.4437 21.871 39.8787 21.726 40.3862C21.1702 42.2713 21.1702 44.1321 21.726 45.993C21.871 46.5246 21.7019 46.9355 21.1944 47.2013C20.9044 47.3463 20.6385 47.5155 20.3485 47.7088C20.8077 48.5063 21.2427 49.2555 21.7019 50.0288C22.0161 49.8355 22.3061 49.6905 22.5719 49.5213C23.0311 49.2555 23.4661 49.2797 23.8286 49.6663C25.1819 51.0922 26.8253 52.0347 28.7345 52.4939C29.2661 52.6147 29.5078 52.9772 29.4836 53.5089C29.4836 53.823 29.4836 54.1372 29.4836 54.4755C30.402 54.4755 31.272 54.4755 32.1903 54.4755C32.1903 54.113 32.1903 53.7989 32.1903 53.4847C32.2145 52.9772 32.4078 52.6147 32.9153 52.4939C34.8487 52.0347 36.5162 51.0922 37.8696 49.618C38.2321 49.2555 38.6429 49.2313 39.0779 49.473C39.3679 49.6422 39.6579 49.8113 39.9962 49.9805C40.4554 49.183 40.8904 48.4338 41.3496 47.6605C41.0354 47.4913 40.7696 47.3221 40.5037 47.153C40.0204 46.8871 39.8271 46.5005 39.9962 45.9446C40.5521 44.0838 40.5521 42.1988 39.9962 40.3379C39.8271 39.8062 40.0204 39.4437 40.4554 39.1537C40.7454 38.9846 41.0354 38.8154 41.3496 38.622C40.9146 37.897 40.4796 37.1479 40.0204 36.3504ZM2.15085 51.068C2.36835 51.4305 2.58586 51.7689 2.7792 52.1072C3.7217 51.6239 3.81837 51.7205 4.61587 52.3247C5.34088 52.8805 6.13839 53.388 6.98423 53.7264C7.75757 54.0405 8.48259 54.1855 8.26509 55.2731C8.72426 55.2731 9.11092 55.2731 9.57009 55.2731C9.35259 54.1855 10.1018 54.0164 10.8751 53.7264C11.6968 53.4122 12.4943 52.953 13.1468 52.373C13.7751 51.8414 14.3068 51.503 15.056 52.1314C15.2977 51.7205 15.491 51.3822 15.6843 51.0438C14.766 50.4155 14.8143 50.343 14.9593 49.3038C15.0801 48.4097 15.1285 47.443 14.9835 46.5488C14.8385 45.703 14.6935 45.0263 15.7327 44.6879C15.4668 44.2771 15.2735 43.9388 15.056 43.6004C14.1135 44.0838 14.0168 44.0113 13.2435 43.4071C12.4943 42.8271 11.6968 42.2954 10.8268 41.9571C10.0776 41.6671 9.37677 41.4737 9.59427 40.4587C9.11093 40.4587 8.72426 40.4587 8.33759 40.4587C8.24092 41.5221 8.14424 41.5221 7.2259 41.9088C6.35589 42.2713 5.51005 42.7063 4.78505 43.2863C4.13254 43.7938 3.62504 44.2288 2.82753 43.5763C2.58586 43.9871 2.39252 44.3254 2.19918 44.6396C3.11753 45.2921 3.06919 45.3646 2.92419 46.3796C2.80336 47.3221 2.7792 48.313 2.90003 49.2555C3.02086 50.3672 3.09336 50.4155 2.15085 51.068Z" fill="#136CF2"/>
<path d="M44.9505 13.1259C46.0864 13.1259 47.2464 13.1259 48.3822 13.1259C51.3306 13.15 53.6023 15.0834 54.0614 18.0076C54.1098 18.3943 54.1098 18.7809 54.1098 19.1676C54.1098 25.4027 54.1098 31.6377 54.1098 37.8486C54.1098 38.0903 54.1098 38.332 54.1098 38.5978C54.3273 38.5978 54.4964 38.622 54.6414 38.622C55.2939 38.6461 55.6565 38.9603 55.6323 39.5886C55.6081 40.1203 55.8498 40.2895 56.2848 40.4828C56.9856 40.797 57.614 41.232 58.2423 41.667C58.5082 41.8603 58.6773 41.9087 58.9673 41.7395C59.7407 41.2803 60.1032 41.4012 60.5623 42.1745C61.0215 42.9478 61.4565 43.7212 61.8915 44.4945C62.2299 45.1229 62.1332 45.582 61.5049 45.9204C61.1423 46.1137 61.0698 46.3312 61.094 46.7421C61.1423 47.5637 61.1423 48.3854 61.094 49.2071C61.0698 49.5454 61.1423 49.7146 61.4324 49.8838C62.1574 50.2946 62.254 50.7054 61.8432 51.4304C61.4082 52.2038 60.9732 52.9771 60.514 53.7505C60.1273 54.403 59.6923 54.5238 59.0398 54.1371C58.7257 53.9438 58.5082 53.968 58.194 54.1855C57.5173 54.6446 56.7923 55.0555 56.0673 55.418C55.7773 55.563 55.6323 55.6596 55.6323 56.0221C55.6323 56.8922 55.3181 57.2063 54.4723 57.2063C53.6023 57.2063 52.7323 57.2305 51.8622 57.2063C51.0647 57.1822 50.7506 56.8922 50.7506 56.0947C50.7506 55.708 50.6056 55.563 50.2672 55.3938C49.5422 55.0555 48.8414 54.6205 48.1889 54.1855C47.8989 53.9921 47.7297 53.8955 47.3914 54.0888C46.6664 54.5238 46.2797 54.403 45.8447 53.678C45.3855 52.9046 44.9505 52.1554 44.5155 51.3579C44.1288 50.6813 44.2255 50.2704 44.9022 49.8838C45.2163 49.6904 45.313 49.5212 45.2888 49.1346C45.2163 48.2887 45.2405 47.4429 45.2888 46.597C45.313 46.307 45.2889 46.1379 44.9989 45.9687C44.2013 45.4854 44.1047 45.1229 44.5638 44.3254C44.9988 43.5762 45.4339 42.827 45.8689 42.0778C46.2555 41.4253 46.6905 41.2803 47.343 41.6912C47.7055 41.9087 47.8989 41.8362 48.2372 41.6187C48.9139 41.1595 49.6631 40.797 50.3639 40.362C50.5089 40.2653 50.7022 40.1203 50.7264 39.9753C50.9439 38.7186 50.9439 38.7186 52.2972 38.5736C52.2972 38.3561 52.2972 38.1628 52.2972 37.9453C52.2972 31.6861 52.2972 25.4027 52.2972 19.1434C52.2972 16.5576 50.7264 14.9867 48.1406 14.9867C47.0772 14.9867 46.0139 14.9867 44.9022 14.9867C44.733 16.9201 44.2738 18.7326 43.4038 20.4243C43.0897 21.0285 42.7272 21.6085 42.3405 22.1885C41.9538 22.7685 41.4705 22.8893 41.0113 22.5993C40.528 22.2851 40.4796 21.7293 40.8663 21.1735C42.4855 18.8293 43.2105 16.2434 43.0897 13.3917C42.8722 7.85749 38.4496 2.8791 32.9879 2.00909C29.6529 1.47742 26.6078 2.12993 23.8045 4.03911C23.1761 4.47412 22.6444 4.42578 22.3303 3.91828C22.0161 3.43494 22.1853 2.97577 22.7894 2.54076C31.0062 -3.30763 42.848 1.47742 44.6605 11.41C44.7813 11.9175 44.8538 12.4734 44.9505 13.1259ZM52.6356 40.4587C52.5148 41.5703 52.4664 41.522 51.4514 41.9328C50.6056 42.2712 49.7597 42.7303 49.0589 43.3104C48.4064 43.842 47.8989 44.277 47.1014 43.6004C46.8597 44.0112 46.6664 44.3495 46.473 44.6879C47.3914 45.3404 47.343 45.3887 47.198 46.5004C47.0772 47.3946 47.0289 48.3129 47.1739 49.2071C47.3189 50.0529 47.4639 50.7296 46.4489 51.0679C46.6905 51.4788 46.908 51.8171 47.1014 52.1554C48.0439 51.6721 48.1164 51.7446 48.9139 52.3729C49.6389 52.9288 50.4364 53.4605 51.2823 53.7988C52.0556 54.113 52.7806 54.258 52.5873 55.3213C53.0706 55.3213 53.4573 55.3213 53.8439 55.3213C53.9648 54.2096 54.0131 54.258 55.0039 53.8471C55.874 53.4846 56.7198 53.0255 57.4448 52.4454C58.0732 51.9379 58.6048 51.5513 59.354 52.2038C59.5957 51.7929 59.789 51.4546 59.9823 51.1163C59.064 50.4638 59.1123 50.4154 59.2573 49.3037C59.3782 48.4096 59.4265 47.4912 59.2815 46.597C59.1365 45.7512 58.9673 45.0745 60.0065 44.7362C59.8615 44.4704 59.7648 44.3012 59.6682 44.132C59.5715 43.9629 59.4507 43.7937 59.354 43.6487C58.3631 44.132 58.339 44.0595 57.4931 43.3829C56.7681 42.827 55.9706 42.3195 55.1248 41.9812C54.3756 41.6912 53.6989 41.4737 53.8681 40.4587C53.4089 40.4587 53.0464 40.4587 52.6356 40.4587Z" fill="#136CF2"/>
<path d="M32.7945 11.6517C34.0995 11.6517 35.332 11.6517 36.5646 11.6517C37.0479 11.6517 37.4587 11.7242 37.6762 12.2075C37.8937 12.6908 37.6521 13.0533 37.3379 13.3917C34.317 16.7025 31.2962 20.0376 28.2753 23.3484C27.8886 23.7593 27.4778 24.0251 26.9461 23.7109C26.4145 23.3968 26.4386 22.9134 26.6561 22.3818C27.3328 20.6176 28.0095 18.8292 28.6862 17.065C28.7587 16.8717 28.807 16.7025 28.9036 16.4125C27.5261 16.4125 26.2211 16.4367 24.9403 16.3884C24.6261 16.3642 24.1911 16.0984 24.0703 15.8325C23.9494 15.5909 24.1669 15.18 24.2394 14.8417C24.2636 14.7692 24.3361 14.7209 24.4086 14.6725C26.1486 12.7633 27.8645 10.8783 29.6045 8.96913C30.9095 7.54328 32.2145 6.09327 33.5195 4.66742C33.882 4.25658 34.317 4.06325 34.8004 4.37742C35.3079 4.69159 35.3079 5.15076 35.0904 5.65826C35.0662 5.7066 35.042 5.7791 35.0179 5.82743C34.3654 7.51912 33.7129 9.2108 33.0845 10.9267C32.9637 11.12 32.8912 11.3617 32.7945 11.6517ZM31.5862 9.66997C31.5378 9.64581 31.4895 9.62164 31.4653 9.59747C29.9912 11.2167 28.4928 12.86 26.922 14.5759C27.9853 14.5759 28.8795 14.5759 29.7495 14.5759C31.0545 14.5759 31.3928 15.0592 30.9337 16.2675C30.6437 16.9925 30.3778 17.7176 30.0878 18.4667C30.112 18.4909 30.1603 18.4909 30.1845 18.5151C31.6828 16.8717 33.1812 15.2042 34.7762 13.4642C33.6404 13.4642 32.6979 13.4642 31.7312 13.4642C30.692 13.4642 30.3295 12.9325 30.692 11.9658C30.982 11.1925 31.272 10.4433 31.5862 9.66997Z" fill="#136CF2"/>
<path d="M30.837 48.2163C28.0578 48.2163 25.8344 45.9688 25.8586 43.1896C25.8586 40.4104 28.1061 38.187 30.8853 38.2112C33.6645 38.2354 35.912 40.4829 35.8879 43.2379C35.8395 46.0171 33.6162 48.2163 30.837 48.2163ZM30.8611 46.4038C32.6495 46.4038 34.0512 44.9779 34.0512 43.2137C34.027 41.4496 32.6012 40.0237 30.837 40.0479C29.0486 40.0479 27.6469 41.4737 27.6711 43.2621C27.6711 45.0021 29.0728 46.4038 30.8611 46.4038Z" fill="#136CF2"/>
<path d="M8.91752 44.1562C10.9717 44.1562 12.6151 45.8237 12.6151 47.8779C12.6151 49.9079 10.9234 51.5754 8.89336 51.5754C6.86334 51.5513 5.19582 49.8837 5.21999 47.8537C5.21999 45.7995 6.86333 44.1562 8.91752 44.1562ZM7.0325 47.8054C7.00834 48.8446 7.83002 49.7146 8.8692 49.7629C9.88421 49.7871 10.7784 48.9171 10.8026 47.9021C10.8267 46.8871 10.005 46.0412 8.99003 45.9929C7.92669 45.9445 7.05667 46.7662 7.0325 47.8054Z" fill="#136CF2"/>
<path d="M53.2638 44.1562C55.318 44.1804 56.9372 45.8237 56.9372 47.8779C56.9372 49.9079 55.2214 51.5754 53.2155 51.5513C51.1855 51.5271 49.518 49.8354 49.5421 47.8054C49.5421 45.7754 51.2096 44.1562 53.2638 44.1562ZM55.1005 47.9021C55.1247 46.8629 54.303 45.9929 53.2397 45.9929C52.2247 45.9687 51.3546 46.7904 51.3305 47.7812C51.2821 48.8204 52.128 49.7146 53.143 49.7387C54.1822 49.7871 55.0764 48.9412 55.1005 47.9021Z" fill="#136CF2"/>
</svg>
