<svg width="61" height="60" viewBox="0 0 61 60" fill="none" xmlns="http://www.w3.org/2000/svg">
<path d="M5.39714 59.9279C4.19628 59.4236 3.764 58.5109 3.81203 57.238C3.88409 55.5088 3.83602 53.7795 3.83602 51.9542C3.54781 51.9542 3.30765 51.9542 3.06748 51.9542C2.1308 51.9782 1.36223 51.666 1.00197 50.7534C0.641708 49.8647 0.977973 49.1442 1.62644 48.4957C9.07179 40.9783 16.5172 33.4609 23.9865 25.9675C25.0913 24.8627 26.2201 23.806 27.397 22.6772C26.9407 22.2208 26.6044 21.9086 26.2682 21.5964C25.2595 20.5877 25.1634 19.7951 25.9319 18.5702C25.5236 18.1619 25.1394 17.7296 24.7071 17.2973C23.7944 17.9698 22.8817 18.0418 21.897 17.2733C21.7529 17.4654 21.6328 17.6576 21.4647 17.8257C16.8294 22.485 12.17 27.1204 7.51067 31.7797C5.8775 33.4129 4.31635 33.3889 2.68318 31.7557C2.37095 31.4435 2.03471 31.1312 1.72249 30.795C0.521622 29.5461 0.521645 27.8649 1.74653 26.616C3.59586 24.7426 5.46921 22.8933 7.34256 21.02C10.2487 18.1139 13.1307 15.2318 16.0368 12.3257C16.1809 12.1816 16.349 12.0855 16.4931 11.9655C16.397 11.7973 16.349 11.6773 16.301 11.5812C15.7486 10.6685 15.8446 9.80391 16.6132 9.03535C17.4298 8.19475 18.2464 7.37816 19.111 6.51354C18.2464 5.98516 17.3578 5.769 16.3971 5.88909C15.4844 6.00918 14.6438 5.84106 13.9473 5.21661C13.1067 4.47207 12.7945 3.5354 13.0346 2.47864C13.2748 1.39786 13.9473 0.629309 15.0281 0.365119C18.1984 -0.427451 21.0804 -0.0191577 23.4822 2.47864C25.5236 4.61618 27.6611 6.68166 29.7747 8.77116C30.8795 9.87596 30.9515 10.5484 30.207 11.8214C30.6153 12.2777 30.9996 12.71 31.3598 13.1423C32.8489 12.3497 33.4493 12.4458 34.5781 13.5746C34.9864 13.9829 35.4188 14.3912 35.755 14.8715C36.6917 16.1685 36.5236 17.8977 35.3947 19.1226C34.6742 19.8671 33.9297 20.5877 33.1611 21.3562C33.3533 21.5484 33.4973 21.7165 33.6655 21.8846C42.3837 30.6989 51.126 39.4893 59.8203 48.3036C60.2286 48.7119 60.5168 49.2403 60.8531 49.6966C60.8531 49.9608 60.8531 50.249 60.8531 50.5132C60.3487 51.9302 59.1959 52.1223 57.8509 52.0023C57.8509 52.2905 57.8509 52.4826 57.8509 52.6988C57.8509 54.2118 57.8028 55.7489 57.8749 57.262C57.9229 58.559 57.5147 59.4956 56.2898 60C39.2855 59.9279 22.3293 59.9279 5.39714 59.9279ZM31.7922 22.8453C31.0476 23.0855 30.3991 23.3496 29.7266 23.4457C29.3424 23.5178 29.0542 23.6138 28.766 23.902C20.3599 32.4042 11.9299 40.9063 3.4998 49.3844C3.35569 49.5285 3.21159 49.6726 3.01945 49.8887C21.5848 49.8887 40.03 49.8887 58.5954 49.8887C49.5889 40.7862 40.6545 31.7557 31.7922 22.8453ZM5.87749 57.8865C22.5215 57.8865 39.1414 57.8865 55.7613 57.8865C55.7613 55.893 55.7613 53.9236 55.7613 51.9782C39.0934 51.9782 22.4974 51.9782 5.87749 51.9782C5.87749 53.9717 5.87749 55.9171 5.87749 57.8865ZM32.7768 14.5833C31.3838 15.3759 30.7594 15.3039 29.6546 14.175C29.4624 13.9829 29.2703 13.7908 29.0782 13.5986C27.9254 12.4458 27.8293 11.7973 28.6459 10.3803C28.5978 10.3083 28.5258 10.2362 28.4778 10.1642C26.2201 7.95458 23.9625 5.74499 21.7289 3.51138C19.9756 1.75812 17.8621 1.71009 15.6285 2.23847C15.1962 2.33453 14.98 2.67078 15.004 3.10309C15.0521 3.55942 15.3403 3.79959 15.7726 3.87164C15.9887 3.89566 16.2049 3.87164 16.4211 3.84762C18.1263 3.72754 19.6154 4.18387 20.9123 5.28866C21.897 6.12926 21.897 6.58559 21.0084 7.49825C20.0237 8.48296 19.039 9.49168 18.1503 10.4043C19.8796 12.2056 21.6088 14.0069 23.314 15.7842C24.659 14.9676 25.3315 15.0637 26.4123 16.1445C26.6284 16.3606 26.8446 16.5768 27.0847 16.8169C28.2136 17.9458 28.2856 18.6182 27.469 19.9872C27.9014 20.3715 28.3096 20.7798 28.766 21.1401C29.3424 21.5964 30.0389 21.5724 30.5673 21.044C31.7201 19.9392 32.8489 18.8104 33.9537 17.6576C34.5301 17.0571 34.5061 16.3366 33.9537 15.7122C33.5454 15.3519 33.1611 14.9916 32.7768 14.5833ZM17.8381 13.2864C15.2442 15.9043 12.6264 18.4982 10.0325 21.116C7.77486 23.3737 5.51725 25.6313 3.25963 27.9129C2.68321 28.4893 2.68319 28.8976 3.23558 29.4741C3.52379 29.7623 3.81202 30.0505 4.10023 30.3387C4.91682 31.1553 5.27709 31.1553 6.09368 30.3387C10.753 25.6793 15.4124 21.02 20.0717 16.3606C20.2158 16.2165 20.3599 16.0484 20.456 15.9523C19.5913 15.0397 18.7267 14.1991 17.8381 13.2864Z" fill="#136CF2"/>
<path d="M31.0477 47.9193C26.2202 48.1354 22.0172 44.1966 21.801 39.249C21.6089 34.3735 25.4997 30.1225 30.3271 29.9303C35.3948 29.7142 39.5738 33.5569 39.7899 38.5765C40.0301 43.5721 36.1393 47.7031 31.0477 47.9193ZM30.7354 45.9258C34.5302 45.9979 37.7245 42.8756 37.8205 39.0329C37.8926 35.2381 34.7703 31.9958 30.9756 31.9238C27.0848 31.8517 23.8665 34.9499 23.8184 38.8407C23.7464 42.6835 26.8686 45.8538 30.7354 45.9258Z" fill="#136CF2"/>
<path d="M29.8227 37.4237C29.8227 36.9434 29.7987 36.439 29.8227 35.9587C29.8467 35.3342 30.2551 34.95 30.8075 34.95C31.3839 34.95 31.7682 35.3102 31.7922 35.9587C31.8162 36.6312 31.7681 37.2796 31.8162 37.9521C31.8402 38.1923 31.9843 38.5045 32.1764 38.6486C32.8249 39.129 33.5214 39.5613 34.2179 40.0176C34.7943 40.4259 34.9384 40.9783 34.6262 41.4586C34.2899 41.963 33.6895 42.0591 33.0891 41.6508C32.2485 41.0984 31.4559 40.522 30.5913 40.0176C29.9909 39.6573 29.7267 39.177 29.7747 38.4805C29.8227 38.1202 29.7987 37.784 29.8227 37.4237Z" fill="#136CF2"/>
</svg>
